<svg id="Layer_1" data-name="Layer 1" xmlns="http://www.w3.org/2000/svg" width="502" height="574" viewBox="0 0 502 574"><defs><style>.cls-1{fill:none;stroke:#002b49;stroke-miterlimit:10;stroke-width:0.63px;}.cls-2{fill:#002b49;}</style></defs><polygon class="cls-1" points="358.19 268.26 307.89 305.82 358.19 343.38 408.49 305.82 358.19 268.26"/><rect class="cls-1" x="130.35" y="55.75" width="124.18" height="106.24"/><rect class="cls-1" x="142.88" y="66.81" width="99.11" height="84.12"/><rect class="cls-1" x="142.88" y="180.87" width="99.11" height="24.98"/><rect class="cls-1" x="319.23" y="116.42" width="129.28" height="16.45"/><rect class="cls-1" x="372.43" y="139.86" width="129.57" height="33.04"/><rect class="cls-1" x="402.31" y="194.75" width="69.81" height="17.9"/><rect class="cls-1" x="318.79" y="418.38" width="149.54" height="38.18"/><path class="cls-2" d="M124.2,368.61a4.89,4.89,0,0,0,.24-1.74c0-1.68.27-3.32.41-5a30.2,30.2,0,0,1,.84-4.65,16.79,16.79,0,0,1,1-3.6.76.76,0,0,1,.84-.47A32.88,32.88,0,0,0,131,353a4.76,4.76,0,0,1,1.41,0,2,2,0,0,0,.81,0,.7.7,0,0,1,.87.87,2.34,2.34,0,0,0,0,1,1.37,1.37,0,0,1-.2.94c-.36.71-.33.83.3,1.32.32.25.65.48,1,.71a3.28,3.28,0,0,1,1.16,1.26,3.89,3.89,0,0,0,1.95,1.5c.37.19.66-.25.65-.6,0-1,.75-1.23,1.39-1.61a.61.61,0,0,1,.53,0c2.58.88,5.25,1.42,7.89,2.09l.42.12a.63.63,0,0,0,.85-.44c.56-1.31,1-2.7,1.65-4a.51.51,0,0,0,.07-.15c0-.26.28-.53,0-.76s-.49,0-.72.07a5.46,5.46,0,0,1-1.38.28,1.56,1.56,0,0,1-1.17-.37.9.9,0,0,0-1-.22,1,1,0,0,1-.6,0,2.11,2.11,0,0,0-1.06-.07.67.67,0,0,1-.86-.54,4.93,4.93,0,0,0-.36-.85,1,1,0,0,1-.06-1.21.58.58,0,0,0-.08-.71,1,1,0,0,1,.16-1.2.73.73,0,0,1,1-.19.87.87,0,0,0,1-.18,2.32,2.32,0,0,1,1.61-.54,13.5,13.5,0,0,0,2.9-.47,1.24,1.24,0,0,1,.95.07,5.57,5.57,0,0,0,2.81.51,10.56,10.56,0,0,1,2.17.2c.29,0,.66.15.83-.2a.78.78,0,0,0-.25-1l-2.46-2.15a4.74,4.74,0,0,1-.51-.49.6.6,0,0,1,.17-1,2,2,0,0,0,.7-.51.44.44,0,0,0,0-.51.35.35,0,0,0-.44-.12c-.63.19-1.23.43-1.87.58-.37.09-.24.32,0,.52.41.42.39.57-.13.83a6.49,6.49,0,0,1-.91.38c-.78.26-1.25-.09-1.25-.9v-.11c0-.46.35-1-.42-1.18s-1.57-.15-2,.52a13,13,0,0,0-1.94,3.61,3.07,3.07,0,0,0-.13,1.12.55.55,0,0,1-.5.66,5.69,5.69,0,0,1-2.1.19.71.71,0,0,0-.78.26.75.75,0,0,1-.56.28c-.46,0-.55.24-.33.66s.36.71.55,1.06a.47.47,0,0,1-.15.71,1.85,1.85,0,0,0-.72.93c-.25.57-.68.62-1.1.14a3.23,3.23,0,0,1-.6-1.27c-.22-.79-.64-1.5-.84-2.3-.12-.54-.6-.4-.95-.35s-.38.31-.28.63a1.11,1.11,0,0,1-.33,1.15.51.51,0,0,1-.5.13c-.21-.06-.19-.25-.19-.41a2,2,0,0,1,0-.65,1.72,1.72,0,0,0-.25-1.4,43.81,43.81,0,0,1-2-4c-.22-.48-.45-.54-.89-.22-.18.13-.36.26-.52.4-.42.35-.82.52-1.31.1-.28-.24-.63-.15-.62.24,0,1-.7,1.64-1.22,2.37a3.26,3.26,0,0,0-.91,1.93,1,1,0,0,1-.4.69c-.54.51-1.08,1-1.62,1.55-.28.27-.4.08-.59-.14a2.5,2.5,0,0,1-.5-2.44c.36-1.39.46-2.82.76-4.22.2-.87.36-1,1.24-1,1.49,0,1.48,0,1.92-1.46.25-.82,0-1.66.2-2.49.06-.27-.21-.53-.35-.78-.26-.47-.2-.77.28-1a10.88,10.88,0,0,0,4.9-4.2,2.22,2.22,0,0,1,1.65-1c.74-.1.73-.29.91-1,.3-1.21.4-2.54,1.53-3.39.17-.14.33-.35.56-.22s.16.42.1.64-.14.53-.23.79-.16.62.21.84a.37.37,0,0,1,.14.48.38.38,0,0,1-.52.17c-.43-.17-.67,0-.74.42s.16.67.65.66a2.09,2.09,0,0,1,1.19.32.6.6,0,0,0,.71,0l.65-.41c.43-.31.86-.47,1.32,0a.4.4,0,0,0,.46.11c.54-.32,1.19-.48,1.53-1.09s.8-1.38,1.18-2.08c.2-.36.39-.53.75-.2s.57.39.82.09.65-.68.41-1.21c-.35-.75-.33-.76.48-1,1.15-.35,2.35-.45,3.52-.7.3-.06.72-.09.63-.5a.6.6,0,0,0-.82-.36,18.94,18.94,0,0,1-2.89.48c-1.08.18-1.55-.41-1.18-1.43a11.23,11.23,0,0,0,.58-1.81,2,2,0,0,1,1-1.27c.88-.57,1.79-1.12,2.68-1.68a2.24,2.24,0,0,0,.44-.32.44.44,0,0,0,.13-.5c-.08-.18-.26-.18-.43-.18h-.21a1.7,1.7,0,0,0-2,1,4.6,4.6,0,0,1-1.53,1.28c-.59.43-1.24.77-1.79,1.25a4.17,4.17,0,0,0-1.29,2.16,1.1,1.1,0,0,0,.13.68,1.15,1.15,0,0,1-.35,1.42,2.93,2.93,0,0,1-.56.44,4.15,4.15,0,0,0-1.89,2.37c-.36,1-1.17,1.36-1.92,1.85-.32.21-.71-.21-.61-.68a10.74,10.74,0,0,0,.25-1.78c0-.62.25-1.21.28-1.82,0-.16,0-.36-.15-.44s-.27,0-.39.14l-.92.69a.79.79,0,0,1-1,.06c-.32-.24-.13-.55,0-.84a8,8,0,0,0,.62-1.8,7.25,7.25,0,0,1,1-2.12,1.09,1.09,0,0,1,.5-.4,18.26,18.26,0,0,1,2.63-1.54.26.26,0,0,0,.14-.09c.75-1.14,2-1.76,2.89-2.78a28.18,28.18,0,0,1,3-2.73.54.54,0,0,0,.24-.64.6.6,0,0,1,.74-.73c.56.15.82,0,1.17-.48a1.66,1.66,0,0,1,1.74-.5,1,1,0,0,0,.89-.12c.82-.6,1.84-.79,2.67-1.35a.53.53,0,0,1,.62,0,1.94,1.94,0,0,0,1.41.22,2.77,2.77,0,0,1,1,.11c.2.06.4.12.43.35a.54.54,0,0,1-.35.52l-.29.14a.23.23,0,0,0-.13.22.22.22,0,0,0,.23.2,1.54,1.54,0,0,0,.48,0,.6.6,0,0,1,.81.34.94.94,0,0,0,.83.61,2,2,0,0,1,.88.42c.87.52,1.75,1,2.62,1.56a.93.93,0,0,1-.06,1.76l-.43.23a2.58,2.58,0,0,1-2.8.27c-.72-.41-1.57-.56-2.29-1-.13-.08-.29-.19-.44,0a.42.42,0,0,0,0,.47,1.39,1.39,0,0,0,.39.51.78.78,0,0,1,.09,1.16c-.42.54-.39.82.14,1.23a8.82,8.82,0,0,0,1,.63.39.39,0,0,0,.5,0c.16-.17.06-.33,0-.5s-.5-.53-.22-.81.68-.08,1,.09a7.18,7.18,0,0,0,.92.46c.47.13.71,0,.69-.45s.27-.72.73-.83,1.16-.44,1.77-.56a2.54,2.54,0,0,1,.87,0c.64.11,1-.23.89-.86a1.39,1.39,0,0,1,.28-1.32,1.43,1.43,0,0,0,.24-.66c.07-.42.32-.52.7-.49a2.15,2.15,0,0,1,1.25.29c.19.14.39.31.33.59a.65.65,0,0,1-.47.48l-.48.14c-.22,0-.42.16-.41.43s.21.38.42.44a1.19,1.19,0,0,0,1.31-.31,3.23,3.23,0,0,1,2.07-1,7.89,7.89,0,0,0,3.4-1,.56.56,0,0,1,.76,0c.66.76,1.48.38,2.24.33a8.76,8.76,0,0,0,1.5-.27,1.47,1.47,0,0,1,1.38.23c.32.26.94-.09,1.15-.6s-.07-.67-.47-.79l-.1,0c-.33-.08-.64-.2-.67-.6a.33.33,0,0,1,.18-.37.81.81,0,0,1,.91.22c1.07,1.11,2.59,1.2,3.91,1.74.9.37,1.89.52,2.77,1a1,1,0,0,0,.58.13.82.82,0,0,0,.64-.53c.1-.23,0-.42-.21-.58a2.13,2.13,0,0,0-.47-.37c-.85-.4-.85-.4-.5-1.31,0-.12.11-.23,0-.36-.3-.53,0-.89.37-1.22l2.32-2a.54.54,0,0,1,.23-.15c.42-.05.74-.14.67-.7,0-.24.24-.34.48-.33s.51-.06.63.21-.05.42-.21.58l-.28.24.92.16c.3.05.61.08.71.42a.8.8,0,0,1-.26.84l-.27.27a.51.51,0,0,0-.07.81,1.36,1.36,0,0,1,.2,1.57c-.09.24-.15.49-.24.72a.86.86,0,0,0,.2,1,.67.67,0,0,1,0,1.05c-.65.67-1.33,1.3-2,1.9a2.82,2.82,0,0,1-.92.42,1.51,1.51,0,0,0,1.8-.1c.74-.61,1.45-1.27,2.17-1.9a.65.65,0,0,0,.26-.41,1,1,0,0,1,.92-.92,1.59,1.59,0,0,1,1.69.48c.12.16.15.44.44.42.06,0,.14-.12.16-.19.08-.29-.14-.42-.31-.59a1.35,1.35,0,0,0-1.09-.4c-.5,0-1,0-1.53,0-.76,0-1-.46-.64-1.13.06-.13.16-.24.22-.38a1,1,0,0,0-.13-1.24c-.42-.44-.37-.74.12-1.08a3,3,0,0,0,1.29-1.29.35.35,0,0,1,.47-.17c.18.06.21.22.22.4a2.09,2.09,0,0,1-.15.79.74.74,0,0,0,.19.85,1.08,1.08,0,0,0,1,.21c.25-.05.2-.19.06-.35-.61-.63-.61-.63.21-1l.1-.05c.53-.72,1.2-.38,1.83-.23s1.48.38,2.22.58c.14,0,.3.12.36-.08s-.07-.23-.18-.3l-.46-.3c-.39-.24-.74-.51-.62-1a1,1,0,0,1,1-.8c1.21,0,2.38-.3,3.58-.25a1.29,1.29,0,0,0,.44,0c.35-.1.51-.34.28-.65-.37-.51-.07-.76.33-1a7.75,7.75,0,0,1,2.39-.71,9.35,9.35,0,0,0,3.31-1,.72.72,0,0,1,.64-.07,6.94,6.94,0,0,0,2.27.18,1.16,1.16,0,0,0,.62-.19,2,2,0,0,1,.59-.27c.54-.09.92-.17,1.13-.87.26-.88,2.21-1.3,3-.8a5.54,5.54,0,0,0,1.26.64.55.55,0,0,1,.32.2c.26.58.65.51,1.16.34a3.06,3.06,0,0,1,1.4.11c.68.08,1.37.19,2.05.29s1.22.25,1.49.93a.7.7,0,0,1-.27,1,30.76,30.76,0,0,1-4.26,2.32,2.59,2.59,0,0,0-1,.67c1.24-.31,2.51-.23,3.4-1.23a.69.69,0,0,1,.54-.23,2.74,2.74,0,0,0,1.44-.15c.25-.11.46.19.64.35a1.7,1.7,0,0,0,1.3.41c1,0,2,0,3,0,.68,0,1.29.46,2,.48s1.22.18,1.84.16c.28,0,.48-.08.55-.41.14-.74.38-.91,1.11-.76a14.48,14.48,0,0,0,1.92.38c1.28.05,1.81.94,2.31,1.87a1.68,1.68,0,0,0,.72.77c.36.21.71.44,1.06.67.51.33.79.23.94-.36.23-.88.35-.93,1.25-.75a13.42,13.42,0,0,0,3.46.34c.2,0,.42,0,.53-.19s-.08-.37-.22-.51c-.52-.56-.43-.91.3-1.17a2,2,0,0,1,.91-.07c.52.08,1.05.15,1.57.18a1.29,1.29,0,0,1,1.19.61c.09.17.22.32.43.14a1.49,1.49,0,0,1,2,.11,5.92,5.92,0,0,0,4.09,1.33,9.63,9.63,0,0,0,2,0,.94.94,0,0,1,.91.5c.18.25.36.5.55.74.33.4.68.66,1.17.18a.67.67,0,0,1,.57-.12,3.16,3.16,0,0,0,1.49-.26.57.57,0,0,1,.77.21c.11.15.19.36.48.32,0-.35-.39-.75.06-1a1.05,1.05,0,0,1,1.14.12,55.87,55.87,0,0,1,5.57,3.43,2.28,2.28,0,0,1,.94,1.36c.08.39.39.66.53,1s.16.43-.06.59-.42,0-.6-.1-.2-.21-.31-.31-.36-.58-.74-.37a.93.93,0,0,0-.08,1.19c.46.51.93,1,1.41,1.52a1.82,1.82,0,0,1,.39.52c.11.23.1.44-.14.56a.77.77,0,0,0-.42.86,10.83,10.83,0,0,1-.24,2.05.58.58,0,0,1-.6.53c-.75,0-1.33.54-2.05.7-.45.1-.35.55-.13.85a.53.53,0,0,1,0,.73.56.56,0,0,0,.14.78,7.53,7.53,0,0,1,1.1,1.93c.05.07.1.19.07.25a2.52,2.52,0,0,0,0,1.85.68.68,0,0,1-.29.67.74.74,0,0,0-.18.94,1.43,1.43,0,0,1,0,1.26c-.13.3-.19.63-.29.94a2,2,0,0,1-.34.68c-.14.17-.28.36-.53.33s-.29-.3-.33-.5a48.87,48.87,0,0,0-2.17-7,1.54,1.54,0,0,1,.07-1.4,21.64,21.64,0,0,0,1.44-3.65c.25-.63-.12-1.21-.45-1.78a2.2,2.2,0,0,1-.21,1.34c-.15.29-.29.62-.68.64s-.49-.32-.61-.6a.62.62,0,0,0-.6-.47.78.78,0,0,0-.84.5,4,4,0,0,0-.28,2.69.44.44,0,0,1-.33.67c-.66.18-1.32.4-1.91-.25a1.37,1.37,0,0,0-1.52-.12,22.37,22.37,0,0,0-2.95,2.23,51.07,51.07,0,0,1-5.08,3.58c-.21.11-.44.27-.41.53s.3.21.47.29a15.28,15.28,0,0,1,1.45.75c.28.18.48.23.72,0a.7.7,0,0,1,.94-.09,6.81,6.81,0,0,1,1.64,1.07.65.65,0,0,1,.16.69,83.61,83.61,0,0,1-3,8.8c-.3.8-.69,1.56-1.05,2.33s-.54.79-1.24.69a1.68,1.68,0,0,0-1.41.39c-.6.49-1.25.88-1.28,1.81,0,.64-.61,1-1.11,1.35-.82.58-.86.68-.27,1.51a28.23,28.23,0,0,0,1.89,2.73c.33.36.22.68-.17.95a8.15,8.15,0,0,1-2.37,1c-.65.19-.93-.05-1-.7a9.48,9.48,0,0,0-.13-1.41c-.06-.28.13-.48.24-.71s.14-.61-.32-.66c-.2,0-.4-.07-.59-.1-.72-.12-1-.54-.71-1.21.07-.17.26-.36.08-.55s-.41-.07-.61,0c-.77.27-1.6.34-2.37.64a.78.78,0,0,1-1-.15c-.27-.35,0-.65.1-1s.57-.65.18-.95-.6.17-.87.36a15,15,0,0,1-2.33,1.42,5.41,5.41,0,0,0-.63.33c-.25.16-.25.39,0,.5a4.44,4.44,0,0,1,1.4,1.11c.31.31.67.17,1-.07a2.24,2.24,0,0,1,2.34.12c.12.12.22.26.14.43a.46.46,0,0,1-.43.29,3.53,3.53,0,0,0-2.39,1.38c-.41.45-.41.68,0,1.11.6.61,1.2,1.22,1.81,1.82a1.78,1.78,0,0,1,.18,2c-.25.3-.17.42.14.55.74.3.73.52.36,1.21-.59,1.08-1.56,1.91-2.11,2.94-.68,1.26-1.85,1.6-2.86,2.25a36.09,36.09,0,0,1-6.6,3.1,5.11,5.11,0,0,0-1.18.68.5.5,0,0,1-.83-.14c-.6-.84-1.06-.91-1.9-.34a20.51,20.51,0,0,1-2.25,1.45c-.47.23-.52.45-.21.91l2.36,3.46c.4.59.79,1.18,1.21,1.75a.63.63,0,0,1,0,.93c-.93.79-1.56,1.95-2.88,2.25a1,1,0,0,0-.42.33,6.33,6.33,0,0,1-1.48,1.1c-.17.11-.35.24-.56.11s-.13-.36-.11-.55a2.61,2.61,0,0,1,.06-.27c0-.37-.23-.71-.56-.6a.81.81,0,0,1-1-.49,2.69,2.69,0,0,0-2.24-1.43,1.57,1.57,0,0,1-1-.64c-.4-.45-.73-.4-.89.19a21.57,21.57,0,0,1-.81,2.59,1,1,0,0,0,.25.91l4.84,6.45c.2.25.46.52.14.79a.63.63,0,0,1-.89-.12c-.57-.62-1.11-1.25-1.67-1.88-1.21-1.35-2.42-2.72-3.65-4a1.22,1.22,0,0,1-.31-1.3,8.69,8.69,0,0,0,.41-3,4,4,0,0,0-.3-1.09,12.6,12.6,0,0,0-.85-2.24c-.47-1-.86-1.07-1.71-.4a1.74,1.74,0,0,1-1.25.43c-.55-.05-.83-.29-.8-.83a4.71,4.71,0,0,0-1.37-3.49,13.3,13.3,0,0,1-1-1.6,5.06,5.06,0,0,0-.53-.69c-.51-.54-.56-.48-1.08.07a2.3,2.3,0,0,1-2.09.69c-1-.17-1.47,0-1.93.94a1.79,1.79,0,0,1-.69.75c-2.31,1.55-4.61,3.11-6.93,4.65a1,1,0,0,0-.49.95c0,1,0,2,0,2.95a1.41,1.41,0,0,1-.78,1.42c-.69.42-1.35.88-2,1.32-.5.33-.76.27-1-.26-1-1.86-2.06-3.68-3-5.56a17.46,17.46,0,0,0-1.64-2.76,1.65,1.65,0,0,1-.35-1.06c0-1-.06-2-.1-3,0-.17,0-.35-.18-.42s-.24.11-.34.2l-.32.31c-.82.71-1.1.72-2,.1-.33-.23-.66-.45-1-.66s-.43-.45-.21-.77.1-.28-.11-.4c-.64-.37-1.22-.84-1.9-1.16-.46-.22-.66-.71-1-1.06a1.44,1.44,0,0,0-1.1-.5c-2.12,0-4.25-.2-6.37-.24-1,0-2-.24-3-.32a1.14,1.14,0,0,1-.94-.66c-.39-.76-.58-.82-1.37-.52a1.06,1.06,0,0,1-1-.18l-5-3.34a2.18,2.18,0,0,0-2.14,0c-.32.21-.29.48-.08.75.47.62.94,1.24,1.43,1.86a2.06,2.06,0,0,1,.51,1.33c0,.63.26.74.84.47s.69-.06.67.46c-.05,1.35.11,1.46,1.37.92l3.21-1.38c.53-.23.89-.1,1,.46a2.48,2.48,0,0,0,1.53,1.84c.54.29,1.07.61,1.61.91.26.15.5.32.51.65s-.27.44-.51.56c-1.94,1-3.88,1.92-5.86,2.78-.82.35-1.57.84-2.38,1.22q-3.73,1.78-7.4,3.74c-.68.36-.91.24-1.37-.41a86.26,86.26,0,0,1-4.91-8.36,48,48,0,0,1-3-6,1.89,1.89,0,0,0-.45-.67.56.56,0,0,0-.7-.13c-.24.17-.06.41,0,.6.39.91.81,1.82,1.2,2.74a11.4,11.4,0,0,0,.85,2.16c1.13,1.59,1.57,3.5,2.34,5.26a8.42,8.42,0,0,0,2.61,3.48c.62.48,1.19,1,1.78,1.53a.79.79,0,0,1,.26.69,1.07,1.07,0,0,0,.5.91,2.44,2.44,0,0,0,2.56.56,14.17,14.17,0,0,1,2.9-.48,7.65,7.65,0,0,0,1.46-.44c.15-.05.31-.11.45.05a.38.38,0,0,1,0,.46,4.65,4.65,0,0,1-.36.61A101.55,101.55,0,0,0,158.82,394c-.41.75-.8,1.5-1.21,2.25a1,1,0,0,0,0,1q1.5,3,3,6c.06.11.12.22.19.33.54.83.55.83-.17,1.53s-1.59,1.65-2.48,2.38c-.65.54-.63.66-.17,1.41s.94,1.6,1.42,2.39a.88.88,0,0,1-.07,1.15,2.85,2.85,0,0,0-.63,1.54c-.12.71-.38,1.39-.56,2.09a20.19,20.19,0,0,0-.53,2.66.62.62,0,0,1-.59.61c-.66.1-1.32.25-2,.31a2.36,2.36,0,0,1-1.86-1c-1.52-1.62-2.82-3.41-4.18-5.16a93.36,93.36,0,0,1-6.9-10.26c-1.36-2.32-2.66-4.67-3.8-7.1-.75-1.6-1.53-3.18-2.26-4.78a14.14,14.14,0,0,1-.64-2.85c-.16-.71-.38-1.4-.5-2.12a1.2,1.2,0,0,0-1.41-1.13.63.63,0,0,1-.62-.26,1.41,1.41,0,0,0-1.66-.65,9.07,9.07,0,0,1-2-.14c-.13,0-.25,0-.38,0-.9,0-1.16-.24-1.48-1.09-.61-1.61-1.23-3.21-1.84-4.83-.13-.34-.25-.38-.44-.05s-.32.2-.46,0a.85.85,0,0,1-.19-.38c-.14-1.68-.79-3.3-.58-5a1.35,1.35,0,0,0-.09-.69,7,7,0,0,1-.34-3.22.61.61,0,0,1,.29-.6C124,368.15,123.93,368.6,124.2,368.61Zm45-22.5h.42a.64.64,0,0,0,.76-.46.94.94,0,0,0-.24-1c-.26-.27-.57-.14-.85,0a12.67,12.67,0,0,1-1.19.53l-3.91,1.52c-.5.19-.52.48-.27.88.6.93.91,2,1.55,2.93a2.68,2.68,0,0,1,.15,3c-.57,1.23-.51,1.26.83,1.55.91.2,1.81.4,2.72.57.67.11.92-.12.81-.76a8.24,8.24,0,0,1-.09-1.31,1.74,1.74,0,0,0-.36-1.16.74.74,0,0,1-.16-.72,1.18,1.18,0,0,0-.09-.94,1.56,1.56,0,0,1-.15-.85,1.13,1.13,0,0,0-.38-1c-.4-.4-.77-.83-1.14-1.25-.19-.22-.32-.5-.06-.72C168,346.49,168.45,345.88,169.17,346.11Zm63.93-11.25c0-.13.12-.42-.14-.52s-.42.16-.56.34a8.92,8.92,0,0,1-1.15,1.31l-2.37,2.18c-.11.1-.3.24-.2.4s.34,0,.48,0c.92-.52,1.86-1,2.73-1.59A2.29,2.29,0,0,0,233.1,334.86ZM137,344c-.24.05-.32.22-.38.42a2,2,0,0,0,.19,1.62,10.9,10.9,0,0,1,1.17,2.55,1.35,1.35,0,0,0,.31.51c.12.16.3.32.51.22s.12-.34.06-.52a11.86,11.86,0,0,1-.53-1.59,25.47,25.47,0,0,0-.93-2.84C137.29,344.21,137.2,344,137,344Zm13.5,48.09a1.24,1.24,0,0,0,.18.78.66.66,0,0,0,.88.32,4.1,4.1,0,0,0,.61-1.68.6.6,0,0,0-.26-.34.83.83,0,0,0-.91-.15C150.52,391.27,150.48,391.7,150.46,392.12Zm26.76-44.27a1.08,1.08,0,0,0,.94-.78,1.49,1.49,0,0,0-.76-1.33.59.59,0,0,0-.47.06,1.7,1.7,0,0,0-.15,1.87A.54.54,0,0,0,177.22,347.85Z"/><path class="cls-2" d="M265.28,408.37c-.44,1.18.22,2.26.45,3.4a1.45,1.45,0,0,1-.25,1.28c-1.32,1.68-2.63,3.38-4,5.05-1.06,1.33-2.22,2.56-3.36,3.79a8.07,8.07,0,0,1-2.65,1.6.69.69,0,0,1-.42.07,3,3,0,0,0-1.84.15c-.7.26-1.75-.8-1.64-1.56a3.06,3.06,0,0,0-.17-1.28c-.1-.39-.3-.4-.59-.2a3.62,3.62,0,0,1-.33.2c-.39.18-.63.05-.68-.38-.14-1.24-.15-1.26-1.37-.89s-2.3.29-3.44.54c-2,.45-4.09.56-6.14.83-1.56.21-3.13.4-4.69.67a.51.51,0,0,1-.54-.16c-.17-.21,0-.41.1-.54a1.28,1.28,0,0,0,.32-1.17c-.18-1.14-.13-2.31-.4-3.45-.19-.78-.07-1,.63-1.38a.85.85,0,0,0,.43-.65,18.53,18.53,0,0,1,.53-1.94.78.78,0,0,1,.48-.56,45.08,45.08,0,0,0,4.9-2.49,41.81,41.81,0,0,0,3.76-2.09c.06,0,.14-.11.19-.1.74.15,1.22-.47,1.86-.63a1.23,1.23,0,0,0,.67-.62c.48-.8,1.36-1.05,2.11-1.48.25-.14.47,0,.62.28a1,1,0,0,0,1.81.07,5.32,5.32,0,0,1,.83-1,2.52,2.52,0,0,1,1.39-.71,1.17,1.17,0,0,0,1-.69.63.63,0,0,1,.91-.32,4.12,4.12,0,0,0,2.4.3.4.4,0,0,1,.43.18.38.38,0,0,1-.05.45,4.11,4.11,0,0,1-1,1.05c-.48.37-.48.61,0,1,.7.5,1.42,1,2.12,1.44a.5.5,0,0,0,.8-.14,18.76,18.76,0,0,0,2.06-3.75,6.26,6.26,0,0,1,.64-1.2.36.36,0,0,1,.41-.21.37.37,0,0,1,.32.39c-.17,1.66.84,3.06,1.06,4.63C265.07,406.85,265.17,407.58,265.28,408.37Z"/><path class="cls-2" d="M234.2,391.13c1.49.71,2.32-.52,3.29-1.19,1.59-1.11,3.1-2.33,4.65-3.51a.7.7,0,0,1,1.18.23,1.46,1.46,0,0,0,.92.69c.49.12.54.35.18.73s-.56.57-.84.85c-.57.58-.59.71-.12,1.4a8.3,8.3,0,0,1,.5.71c.31.51.16.92-.43,1a1.34,1.34,0,0,0-1.1.93c-.42.9-.87,1.79-1.3,2.69a.89.89,0,0,1-.57.48c-.69.2-1.35.49-2-.16-.26-.25-.75-.12-1.11,0-1.15.37-2-.36-2.95-.74a.32.32,0,0,1-.12-.11,11.16,11.16,0,0,1-1.14-2.69A1.14,1.14,0,0,1,234.2,391.13Z"/><path class="cls-2" d="M268.74,396.89c-.31.84.35,1.34.69,2,.11.2.27.38.38.59s.19.5-.06.69a.6.6,0,0,1-.81,0,12.1,12.1,0,0,0-2.2-1.41c-.82-.49-1.08-.45-1.76.2a1.62,1.62,0,0,1-2.42.11.71.71,0,0,0-.85-.13,2.24,2.24,0,0,1-.52.16.34.34,0,0,1-.36-.2.3.3,0,0,1,.08-.34l.12-.12c.73-.71.74-.73-.06-1.39a8.47,8.47,0,0,0-1.88-1.37,1.22,1.22,0,0,0-1.1-.07.73.73,0,0,1-.94-.19.72.72,0,0,1-.12-1,.35.35,0,0,0-.15-.58l-.33-.2a.74.74,0,0,1-.44-.7c0-.35.37-.33.64-.38a1.9,1.9,0,0,0,.57-.18,1.59,1.59,0,0,1,1.65.16c.33.16.33.46.14.74a.65.65,0,0,0,.06,1,.77.77,0,0,0,1.08.08,11.12,11.12,0,0,0,1.33-1,1,1,0,0,1,1.34-.14c1.79,1,3.59,2,5.39,3A.86.86,0,0,1,268.74,396.89Z"/><path class="cls-2" d="M238.9,400.46a22.94,22.94,0,0,1-5.86-.67c-1-.16-2-.28-3-.39-.57-.07-1.09-.19-1.23-.86a.28.28,0,0,0-.32-.24,1.73,1.73,0,0,1-1.34-.64c-1.58-1.53-3.13-3.1-4.74-4.6-1.39-1.3-2.75-2.66-4.23-3.86-.21-.17-.4-.37-.26-.65s.4-.27.67-.23a4.62,4.62,0,0,0,.65.07,2.94,2.94,0,0,1,1.89.69,9.76,9.76,0,0,0,3.74,2.26,2.26,2.26,0,0,1,1,.7,2.39,2.39,0,0,0,.68.55.86.86,0,0,1,.53.82,2.55,2.55,0,0,0,.91,1.57.59.59,0,0,0,1-.26c.13-.39.4-.38.7-.27s.71.73.46.95c-.76.66-.34,1.73-.91,2.45-.17.22.1.27.25.29a13.8,13.8,0,0,0,1.56.18,10,10,0,0,1,2.25.38,15.46,15.46,0,0,0,3.44.51,1.65,1.65,0,0,1,.48.1,5.1,5.1,0,0,0,1.72.46.38.38,0,0,1,.41.42C239.42,400.43,239.23,400.47,238.9,400.46Z"/><path class="cls-2" d="M259.55,359.11a.43.43,0,0,0-.65-.51c-.17.13-.09.32-.07.5a7.89,7.89,0,0,1-.2,2.22.47.47,0,0,1-.54.42.6.6,0,0,1-.56-.58A1.55,1.55,0,0,0,257,360c-.32-.26-.1-.58.18-.76a12.46,12.46,0,0,1,3.36-1.92c.56-.15,1-.52,1.61-.66.34-.08.51-.4.66-.69.26-.49.48-1,1.13-1.16.14,0,.26-.2.35-.33.49-.7,1-1.41,1.44-2.12a.59.59,0,0,0,.08-.67,1.08,1.08,0,0,1,.07-1.27c.13-.21.15-.36-.1-.54a1,1,0,0,1-.17-1.48l.1-.12a2.18,2.18,0,0,0,.76-2.1c0-.26-.12-.57.2-.73s.6,0,.84.23a5.49,5.49,0,0,0,1.9,1,.84.84,0,0,1,.6.77c.05.4-.27.51-.58.61a1.25,1.25,0,0,0-.73.68c-.33.58-.67.65-1.2.25-.31-.22-.6-.38-.89,0a.77.77,0,0,0,.07,1.11c.45.35.46.89.61,1.37a5.23,5.23,0,0,1-.15,3.2,10.19,10.19,0,0,0-.36,1.42,1.42,1.42,0,0,1-1.21,1.23c-.26.08-.53.13-.79.21a2.31,2.31,0,0,0-1.24.83c-.53.72-.85.73-1.47.14-.2-.2-.29-.17-.36.09a.9.9,0,0,1-.7.69,1.51,1.51,0,0,0-.52.3c-.19.17-.4.34-.68.19A.58.58,0,0,1,259.55,359.11Z"/><path class="cls-2" d="M168.4,413.7c-.37,0-.71-.07-1.05-.13a.77.77,0,0,1-.58-.52c-.46-1.11-.8-2.26-1.15-3.4-.31-1-.59-2-.91-3-.19-.59-.09-.73.5-.83a2.34,2.34,0,0,0,2.15-1.64,6.2,6.2,0,0,1,.53-1.14c.22-.41.59-.44.78,0a14.63,14.63,0,0,0,1.1,2.25.44.44,0,0,1,0,.47,6.18,6.18,0,0,0-.57,3.22,23.94,23.94,0,0,0,0,4C169.29,413.44,168.94,413.71,168.4,413.7Z"/><path class="cls-2" d="M180.92,313.73a7.16,7.16,0,0,0-2-.24.58.58,0,0,1-.49-.39.94.94,0,0,0-.83-.61c-.32,0-.68-.11-.73-.53s.26-.55.54-.67c.64-.27,1-.92,1.58-1.24a3.29,3.29,0,0,0,1.62-1.23c.08-.15.32-.22.49-.33a4.84,4.84,0,0,0,1.66-1.21.7.7,0,0,1,.36-.24,30.1,30.1,0,0,1,4.5-1.42c1.4-.23,2.8-.45,4.19-.72a8.81,8.81,0,0,0,1.14-.34c.4-.13.72-.05.84.35s-.19.55-.51.63L188.06,307a7.58,7.58,0,0,0-2.23.86c-.35.23-.81.19-1.18.41a35.63,35.63,0,0,0-3.51,2.46.71.71,0,0,0-.17,1,5.51,5.51,0,0,1,.57,1.29C181.69,313.49,181.51,313.73,180.92,313.73Z"/><path class="cls-2" d="M131.33,335.74c-.23-.87.43-1.31.83-1.83a2.65,2.65,0,0,0,.58-1.38c0-.14,0-.31-.16-.37s-.23.08-.31.17a3.18,3.18,0,0,0-.65,1.18,5,5,0,0,1-.62,1.33,1.14,1.14,0,0,1-.57.49c-.45.17-.8-.07-.59-.47.55-1,.62-2.33,1.57-3.17a.64.64,0,0,1,.47-.24c.51,0,.72-.29.83-.71a26,26,0,0,0,.92-2.61,1.65,1.65,0,0,1,.7-.95.38.38,0,0,1,.45-.09.33.33,0,0,1,.15.38c-.27.78,0,1.72-.67,2.37a1.28,1.28,0,0,0-.33,1c0,.94-.13,1.88-.2,2.81a1,1,0,0,0,0,.17,3.27,3.27,0,0,1-.56,2.59c-.07.13-.12.3-.23.36a6.54,6.54,0,0,1-2.14.73c-.32,0-.49-.21-.33-.56a2.37,2.37,0,0,1,.56-.66C131.18,336.08,131.33,335.93,131.33,335.74Z"/><path class="cls-2" d="M248.24,375.06a1.52,1.52,0,0,1,.61.11.49.49,0,0,1,.36.67c-.2.83-.36,1.66-.56,2.49-.11.49,0,.71.54.78a2.33,2.33,0,0,1,1.83,1,.56.56,0,0,0,.5.27,1,1,0,0,1,.6,1.74,2.4,2.4,0,0,1-1.24.79c-.43.09-.79.55-1.18.84a.62.62,0,0,1-.76.1.54.54,0,0,1-.23-.71.45.45,0,0,0-.2-.56.69.69,0,0,1-.23-.92.59.59,0,0,1,.63-.41.69.69,0,0,1,.68.66c.07.49.48.52.82.57s.33-.29.4-.5c.3-.89.17-1-.63-1.52a3.72,3.72,0,0,0-1.73-.56c-.29,0-.52,0-.39.43.07.22.22.47-.08.61a.61.61,0,0,1-.7-.17.76.76,0,0,1-.19-1,.82.82,0,0,0-.27-1.1c-.61-.54-.64-.84-.09-1.46.34-.37.25-.82.32-1.23C247.2,375.23,247.4,375.05,248.24,375.06Z"/><path class="cls-2" d="M243.73,396.85a1.5,1.5,0,0,0-.19-1.41c-.13-.22,0-.46.13-.67a19.86,19.86,0,0,0,1-1.83,2.76,2.76,0,0,1,2.48-1.74,7.5,7.5,0,0,0,2.52-.36c.26-.1.62-.16.78.17s-.12.51-.32.69a2.13,2.13,0,0,1-1.48.59,11.24,11.24,0,0,0-2.72.14c-.19,0-.51,0-.53.26s.2.5.41.67a.44.44,0,0,0,.6,0,2.63,2.63,0,0,1,.4-.28c.35-.14.73-.14.91.22s-.16.48-.43.62c-.47.23-.53.52-.23,1a2.31,2.31,0,0,0,.24.29c.3.33.51.69.24,1.13a1.31,1.31,0,0,1-1.29.39c-.34-.11-.41-.35-.42-.67s.12-.83-.34-.85-.47.5-.54.83a4.63,4.63,0,0,1-.21,1.06.49.49,0,0,1-.63.3A.5.5,0,0,1,243.73,396.85Z"/><path class="cls-2" d="M158.14,303.13a.67.67,0,0,1,.42-.67.67.67,0,0,0,.32-.84,1.17,1.17,0,0,1,.3-1.15c.26-.31.53-.6.8-.9a.82.82,0,0,1,1.25-.1c.3.28.51.31.81,0s.77-.31,1,.24c.37.82.19,1.76.62,2.57.11.21,0,.42-.24.55a2.87,2.87,0,0,1-.91.35c-.39.06-.61-.08-.64-.47,0-.57-.34-.47-.65-.27-.68.43-1.33.91-2,1.32S158.15,303.83,158.14,303.13Z"/><path class="cls-2" d="M267,344.32a.69.69,0,0,1-.73-.53,5,5,0,0,1-.22-1.06,18.77,18.77,0,0,0-.93-4.12,8.67,8.67,0,0,0-.65-2.28c-.17-.28.13-.86.26-1.28.06-.18.25-.11.37,0a1.56,1.56,0,0,1,.45.6,43.12,43.12,0,0,0,2.31,4.61c.31.51.18.79-.41.92a.57.57,0,0,0-.48.51,1.79,1.79,0,0,0,.36,1.61C267.76,343.79,267.55,344.3,267,344.32Z"/><path class="cls-2" d="M213,300.83a1.27,1.27,0,0,1-.33,0c-.37-.06-.49-.26-.33-.62a2.66,2.66,0,0,1,2.76-1.73c.79,0,1.08.45.75,1.15-.18.4,0,.55.35.59a1.85,1.85,0,0,0,.7-.06,1,1,0,0,1,1,.32.94.94,0,0,1,.06,1,.48.48,0,0,1-.68.36,17.12,17.12,0,0,0-2.35-.46,1.93,1.93,0,0,1-1-.4C213.77,300.77,213.47,300.86,213,300.83Z"/><path class="cls-2" d="M250.34,307.43a5.11,5.11,0,0,1-2.1-1,.58.58,0,0,1,0-.84.76.76,0,0,1,1-.28,1.15,1.15,0,0,0,1.45,0,.35.35,0,0,1,.27,0c.72.17,1.45.32,2.15.55a.56.56,0,0,1,.2.94.72.72,0,0,1-.5.31A9.36,9.36,0,0,0,250.34,307.43Z"/><path class="cls-2" d="M252.54,384.84c.27.79-.4,1.32-.87,1.89s-1.37.11-1.46-.56-.21-.73-.79-.5c-.35.15-.9.34-1.12-.15s.37-.65.68-.88a.71.71,0,0,1,1,0,.48.48,0,0,0,.72-.06c.31-.31.62-.62.94-.92.17-.17.35-.36.61-.24a.64.64,0,0,1,.34.64Z"/><path class="cls-2" d="M219,303.34a.54.54,0,0,1-.53-.18.47.47,0,0,1,0-.56l.25-.36c.77-1.21.77-1.22,2.09-.81.4.12.84,0,1.22.22s.53.26.57.6a.45.45,0,0,1-.48.54,13.64,13.64,0,0,0-3,.53Z"/><path class="cls-2" d="M260,427.78c-.32,0-.41-.15-.31-.43a.81.81,0,0,1,.33-.42,45.16,45.16,0,0,0,4.32-3.21,2.74,2.74,0,0,1,.89-.52c.12,0,.26-.09.36,0s0,.28-.1.38-.41.41-.63.6a42.22,42.22,0,0,1-4.12,3.3A1.8,1.8,0,0,1,260,427.78Z"/><path class="cls-2" d="M200.61,386v-1a.41.41,0,0,1,.23-.4.39.39,0,0,1,.49.12,17.54,17.54,0,0,1,1.48,1.95.51.51,0,0,1-.07.61,1.47,1.47,0,0,1-1.38.41,1,1,0,0,1-.76-1.16,4.87,4.87,0,0,0,0-.54Z"/><path class="cls-2" d="M165.55,300a3.94,3.94,0,0,1-1.45-.14c-.36-.16-.66-.36-.56-.81a.67.67,0,0,1,.84-.51c.87.27,1.85.06,2.63.66.14.11.37.14.35.37s-.23.26-.4.31A4.78,4.78,0,0,1,165.55,300Z"/><path class="cls-2" d="M253.89,424.86c.24-.05.49-.06.62.19a.52.52,0,0,1-.19.67,12,12,0,0,1-1.49,1.26.56.56,0,0,1-.75,0c-.25-.25-.14-.51,0-.74C252.83,425.15,252.66,424.94,253.89,424.86Z"/><path class="cls-2" d="M186.77,299.94c-.26,0-.66.25-.76-.16a1.24,1.24,0,0,1,.34-1.25,5.64,5.64,0,0,1,1.06-.64c.21-.12.48-.16.62.1s0,.42-.18.56-.35.28-.23.58c.28.66.14.83-.58.81Z"/><path class="cls-2" d="M270.48,396.54a.78.78,0,0,1-.68-.57c-.13-.38.21-.48.49-.59a8.12,8.12,0,0,0,1.66-.91c.15-.11.31-.2.5-.08a.39.39,0,0,1,.18.42A4.19,4.19,0,0,1,270.48,396.54Z"/><path class="cls-2" d="M235.76,373.85c.26,0,.51,0,.63.32s-.06.45-.21.62a4.26,4.26,0,0,1-.81.72.91.91,0,0,1-1.28-.25.48.48,0,0,1,0-.65A2.5,2.5,0,0,1,235.76,373.85Z"/><path class="cls-2" d="M180.55,300l-.43-.07c-.23-.07-.48-.15-.47-.44s.27-.43.53-.44a3,3,0,0,0,1.23-.38,1.25,1.25,0,0,1,1.2-.06c.33.18.38.52,0,.67A12.23,12.23,0,0,1,180.55,300Z"/><path class="cls-2" d="M242.08,400.67a6.78,6.78,0,0,0-1,.14c-.3,0-.63,0-.68-.38s.28-.4.55-.47l.84-.24c.64-.2.85-.1,1.06.52a.51.51,0,0,0,.45.4,1.05,1.05,0,0,1,.46.16c.21.14.36.35.2.6s-.39.11-.57,0a1.26,1.26,0,0,1-.32-.29C242.68,400.69,242.69,400.68,242.08,400.67Z"/><path class="cls-2" d="M268.93,420.32a1.1,1.1,0,0,1-.26.59,8,8,0,0,1-2.19,1.91c-.12.07-.27.19-.39,0s0-.24.06-.35a1.36,1.36,0,0,1,.13-.24,17.53,17.53,0,0,1,2.08-2.14C268.69,419.88,268.93,420,268.93,420.32Z"/><path class="cls-2" d="M247,370.86a1.56,1.56,0,0,1,.31-1,12.28,12.28,0,0,1,.91-1.14c.09-.12.22-.21.37-.11a.26.26,0,0,1,.1.34,8.86,8.86,0,0,0-.51,2,.5.5,0,0,1-.61.41A.65.65,0,0,1,247,370.86Z"/><path class="cls-2" d="M253.43,309.56a2.1,2.1,0,0,1-1.79-1.21.24.24,0,0,1,.05-.3.23.23,0,0,1,.3,0c.37.35.85.28,1.28.38a1.23,1.23,0,0,1,.48.25.53.53,0,0,1,.2.58A.5.5,0,0,1,253.43,309.56Z"/><path class="cls-2" d="M136,352.11c.64,0,.93.18.88.61-.1.73-.18,1-.6,1a1.41,1.41,0,0,1-1-1.12C135.26,352.23,135.44,352.11,136,352.11Z"/><path class="cls-2" d="M254.8,306a5.73,5.73,0,0,0,1.57.11c.29,0,.5.15.47.46a.43.43,0,0,1-.57.42,5.47,5.47,0,0,0-1.4-.16.91.91,0,0,1-.31-.09c-.21-.1-.37-.25-.3-.5S254.55,306,254.8,306Z"/><path class="cls-2" d="M134.16,349.61a2.81,2.81,0,0,1-.32,1,.46.46,0,0,1-.43.28c-.22,0-.29-.18-.34-.37a2.91,2.91,0,0,1,.12-1.49.41.41,0,0,1,.56-.29C134.16,348.86,134.16,349.21,134.16,349.61Z"/><path class="cls-2" d="M249.25,400.06c.24.05.48-.05.54.18s-.12.35-.29.41a6,6,0,0,0-1.31.67.94.94,0,0,1-.68.13.43.43,0,0,1-.37-.29.36.36,0,0,1,.23-.45C248,400.47,248.66,400.26,249.25,400.06Z"/><path class="cls-2" d="M189.15,299.81a.51.51,0,0,1-.54-.51c0-.44.49-.83,1.08-.83.36,0,.68.06.69.5S189.75,299.81,189.15,299.81Z"/><path class="cls-2" d="M254.18,391.34a1.28,1.28,0,0,1-.94,1.1c-.25,0-.31-.13-.33-.33a3.93,3.93,0,0,1,.17-1.23.5.5,0,0,1,.93,0A4.9,4.9,0,0,1,254.18,391.34Z"/><path class="cls-2" d="M173.48,316.13c-.33,0-.69,0-.72-.44s.39-.71.82-.72a.62.62,0,0,1,.71.58C174.34,315.9,174,316.13,173.48,316.13Z"/><path class="cls-2" d="M254.15,394.82a6.16,6.16,0,0,1,.75.05.34.34,0,0,1,.3.34.34.34,0,0,1-.25.32,2.15,2.15,0,0,1-1.54-.08c-.14-.06-.28-.15-.27-.31s.19-.27.35-.28.44,0,.66,0Z"/><ellipse class="cls-1" cx="208.86" cy="363.22" rx="85.71" ry="85.59"/><ellipse class="cls-1" cx="208.86" cy="363.22" rx="96.17" ry="96.03"/><ellipse class="cls-1" cx="392.78" cy="555.88" rx="11.4" ry="11.38"/><ellipse class="cls-1" cx="392.78" cy="555.88" rx="17.72" ry="17.69"/><ellipse class="cls-1" cx="62.65" cy="108.92" rx="11.4" ry="11.38"/><path class="cls-1" d="M372.36,152.52H295.52V123.35a5.53,5.53,0,1,1,0-11V34.84l-5.73-12.3"/><path class="cls-1" d="M254.53,108.92h20v-4.29a5.52,5.52,0,1,1,0-11V33l7.95-10.19"/><ellipse class="cls-1" cx="285.48" cy="11.81" rx="11.4" ry="11.38"/><path class="cls-1" d="M289.35,201a11.38,11.38,0,1,0-3-7.72H241.88"/><polygon class="cls-1" points="62.66 218.05 0 264.84 62.66 311.63 125.32 264.84 62.66 218.05"/><path class="cls-1" d="M427.08,181.05H408.42a5.53,5.53,0,0,1-11.06,0H317.7l-9.35,7.85"/><line class="cls-1" x1="363.1" y1="339.72" x2="363.1" y2="418.24"/><path class="cls-1" d="M363.1,271.45V203.9h-4.38a5.53,5.53,0,0,1-11.06,0H318.94l-6.61-4.71"/><path class="cls-1" d="M377.82,546.47H216a7.56,7.56,0,0,0-14.88,0h-62L63.2,470.69V311.63"/><path class="cls-1" d="M392.54,474.71v81.17H216a7.56,7.56,0,0,0-14.88,0H132l-76.2-76.1V306.17"/><path class="cls-1" d="M377.53,565.1H216a7.56,7.56,0,0,0-14.88,0H124.7L48.47,489V300.57"/><line class="cls-1" x1="93.76" y1="288.61" x2="127.54" y2="311.94"/><line class="cls-1" x1="296.98" y1="12.06" x2="338.86" y2="53.78"/><line class="cls-1" x1="427.38" y1="172.99" x2="427.38" y2="194.7"/><line class="cls-1" x1="448.66" y1="172.99" x2="448.66" y2="194.7"/><polyline class="cls-1" points="446.18 475 446.18 555.88 410.62 555.88"/><polyline class="cls-1" points="62.65 218.05 62.65 108.92 130.3 108.92"/><line class="cls-1" x1="353.24" y1="339.62" x2="353.24" y2="418.24"/><polyline class="cls-1" points="372.36 159.31 353.24 159.31 353.24 271.5"/><polyline class="cls-1" points="416.01 418.24 416.01 268.43 448.87 268.43 448.87 212.69"/><polyline class="cls-1" points="448.46 124.58 466.73 124.58 466.73 139.71"/><rect class="cls-1" x="130.35" y="39.3" width="29" height="6.55"/><rect class="cls-1" x="162.07" y="39.3" width="29" height="6.55"/><rect class="cls-1" x="193.8" y="39.3" width="29" height="6.55"/><rect class="cls-1" x="225.52" y="39.3" width="29" height="6.55"/><polyline class="cls-1" points="130.05 34.17 190.69 34.17 192.44 30.19 194.18 34.17 254.83 34.17"/><line class="cls-1" x1="181.17" y1="150.98" x2="181.17" y2="180.54"/><line class="cls-1" x1="204.19" y1="150.98" x2="204.19" y2="180.54"/><path class="cls-2" d="M352.31,125.39h-1.72l-.49,1.14h-.49l1.85-4.23,1.82,4.23h-.5Zm-.18-.42-.68-1.62-.69,1.62Z"/><path class="cls-2" d="M356.5,122.49l1.13,3.08,1.14-3.08h.5l-1.64,4.28L356,122.49Z"/><path class="cls-2" d="M362.36,125.39h-1.72l-.48,1.14h-.5l1.86-4.23,1.81,4.23h-.5Zm-.18-.42-.67-1.62-.69,1.62Z"/><path class="cls-2" d="M366.25,123.29a1,1,0,0,0-.24-.3.73.73,0,0,0-.46-.14.61.61,0,0,0-.67.62.41.41,0,0,0,.15.35,1.41,1.41,0,0,0,.42.26l.39.17a1.85,1.85,0,0,1,.62.38.94.94,0,0,1,.29.73,1.3,1.3,0,0,1-2.15.92,1.58,1.58,0,0,1-.38-.72l.44-.12a1,1,0,0,0,.24.52.8.8,0,0,0,.58.22.76.76,0,0,0,.81-.8.58.58,0,0,0-.2-.47,1.73,1.73,0,0,0-.48-.28l-.36-.17a1.78,1.78,0,0,1-.54-.33.83.83,0,0,1-.28-.66,1,1,0,0,1,1.13-1,1.06,1.06,0,0,1,.65.19,1.18,1.18,0,0,1,.39.44Z"/><path class="cls-2" d="M368.92,122.91v3.62h-.44v-3.62h-1v-.42h2.41v.42Z"/><path class="cls-2" d="M375.23,122.91h-1.65v1.2h1.6v.43h-1.6v1.57h1.65v.42h-2.09v-4h2.09Z"/><path class="cls-2" d="M379.75,123.38a1.78,1.78,0,0,0-.53-.37,1.66,1.66,0,0,0-.69-.16,1.63,1.63,0,0,0-1.62,1.68,1.61,1.61,0,0,0,1.62,1.65,1.71,1.71,0,0,0,.76-.19,1.49,1.49,0,0,0,.46-.34v.56a2.1,2.1,0,0,1-1.22.39,2,2,0,0,1-2.09-2.07,2.06,2.06,0,0,1,2.12-2.11,1.89,1.89,0,0,1,1.19.4Z"/><path class="cls-2" d="M381,124.51a2.11,2.11,0,1,1,2.11,2.09A2.07,2.07,0,0,1,381,124.51Zm.47,0a1.64,1.64,0,1,0,1.64-1.66A1.65,1.65,0,0,0,381.43,124.51Z"/><path class="cls-2" d="M388.41,123.29a1,1,0,0,0-.24-.3.73.73,0,0,0-.46-.14.61.61,0,0,0-.67.62.41.41,0,0,0,.15.35,1.41,1.41,0,0,0,.42.26l.39.17a1.85,1.85,0,0,1,.62.38.94.94,0,0,1,.29.73,1.3,1.3,0,0,1-2.15.92,1.58,1.58,0,0,1-.38-.72l.44-.12a1,1,0,0,0,.24.52.8.8,0,0,0,.58.22.76.76,0,0,0,.81-.8.58.58,0,0,0-.2-.47,1.73,1.73,0,0,0-.48-.28l-.36-.17a1.78,1.78,0,0,1-.54-.33.83.83,0,0,1-.28-.66,1,1,0,0,1,1.13-1,1.06,1.06,0,0,1,.65.19,1.18,1.18,0,0,1,.39.44Z"/><path class="cls-2" d="M391,124.79l-1.33-2.3h.53l1,1.81,1-1.81h.52l-1.34,2.3v1.74H391Z"/><path class="cls-2" d="M395.59,123.29a.86.86,0,0,0-.23-.3.75.75,0,0,0-.46-.14.62.62,0,0,0-.68.62.44.44,0,0,0,.15.35,1.59,1.59,0,0,0,.43.26l.39.17a2,2,0,0,1,.62.38.94.94,0,0,1,.29.73,1.21,1.21,0,0,1-1.28,1.24,1.22,1.22,0,0,1-.88-.32,1.47,1.47,0,0,1-.37-.72l.43-.12a1.06,1.06,0,0,0,.25.52.77.77,0,0,0,.58.22.76.76,0,0,0,.81-.8.58.58,0,0,0-.2-.47,1.73,1.73,0,0,0-.48-.28l-.37-.17a1.91,1.91,0,0,1-.54-.33.86.86,0,0,1-.28-.66,1.16,1.16,0,0,1,1.79-.86,1.18,1.18,0,0,1,.39.44Z"/><path class="cls-2" d="M398.27,122.91v3.62h-.45v-3.62h-1v-.42h2.41v.42Z"/><path class="cls-2" d="M402.56,122.91h-1.65v1.2h1.6v.43h-1.6v1.57h1.65v.42h-2.1v-4h2.1Z"/><path class="cls-2" d="M403.85,126.53l.67-4.26,1.56,3.41,1.58-3.42.63,4.27h-.46l-.39-2.81-1.37,3-1.36-3-.4,2.81Z"/><path class="cls-2" d="M411.63,124.51a2.1,2.1,0,1,1,2.1,2.09A2.07,2.07,0,0,1,411.63,124.51Zm.46,0a1.64,1.64,0,1,0,1.64-1.66A1.65,1.65,0,0,0,412.09,124.51Z"/><path class="cls-2" d="M419.1,122.91h-1.39v1.2h1.35v.42h-1.35v2h-.45v-4h1.84Z"/><path class="cls-2" d="M375.14,428.25l.67-4.26,1.55,3.41,1.58-3.42.63,4.27h-.46l-.38-2.81-1.38,3-1.35-3-.4,2.81Z"/><path class="cls-2" d="M380.89,426.23a2.11,2.11,0,1,1,2.11,2.09A2.07,2.07,0,0,1,380.89,426.23Zm.46,0a1.65,1.65,0,1,0,1.65-1.66A1.66,1.66,0,0,0,381.35,426.23Z"/><path class="cls-2" d="M387.18,424.21a1.83,1.83,0,0,1,1,.22,1.13,1.13,0,0,1-.58,2l1.29,1.8h-.55l-1.23-1.77H387v1.77h-.45v-4Zm-.2,1.87h.28c.56,0,.89-.26.89-.74a.63.63,0,0,0-.32-.59,1.19,1.19,0,0,0-.58-.12H387Z"/><path class="cls-2" d="M392.27,424.63h-1.65v1.2h1.6v.43h-1.6v1.57h1.65v.42h-2.09v-4h2.09Z"/><path class="cls-2" d="M396.71,424.63v3.62h-.44v-3.62h-1v-.42h2.41v.42Z"/><path class="cls-2" d="M399.36,425.85h2.07v-1.64h.45v4h-.45v-2h-2.07v2h-.45v-4h.45Z"/><path class="cls-2" d="M405.75,427.11H404l-.49,1.14h-.5l1.86-4.23,1.81,4.23h-.49Zm-.17-.42-.68-1.62-.69,1.62Z"/><path class="cls-2" d="M407.9,428.25V424l3.15,3.3v-3.13h.45v4.22l-3.15-3.3v3.12Z"/><path class="cls-2" d="M423.88,202.07a1.44,1.44,0,0,1,1,.29,1.11,1.11,0,0,1,.37.87,1.13,1.13,0,0,1-1.28,1.13h-.39v1.76h-.45v-4.05Zm-.28,1.86H424c.53,0,.85-.26.85-.73,0-.64-.6-.7-.89-.7h-.33Z"/><path class="cls-2" d="M428.43,205h-1.72l-.48,1.14h-.5l1.86-4.24,1.81,4.24h-.5Zm-.18-.43-.67-1.61-.69,1.61Z"/><path class="cls-2" d="M431.22,202.07a1.77,1.77,0,0,1,1,.23,1.08,1.08,0,0,1,.44.9,1.06,1.06,0,0,1-1,1.11l1.29,1.81h-.55l-1.23-1.77H431v1.77h-.44v-4.05ZM431,204h.29c.56,0,.89-.27.89-.74a.64.64,0,0,0-.32-.6,1.18,1.18,0,0,0-.58-.11H431Z"/><path class="cls-2" d="M435.22,202.5v3.62h-.45V202.5h-1v-.43h2.41v.43Z"/><path class="cls-2" d="M437.41,206.12v-4.21l3.15,3.3v-3.14H441v4.23l-3.15-3.3v3.12Z"/><path class="cls-2" d="M444.76,202.5h-1.65v1.2h1.6v.42h-1.6v1.57h1.65v.43h-2.1v-4.05h2.1Z"/><path class="cls-2" d="M446.83,202.07a1.77,1.77,0,0,1,1,.23,1.08,1.08,0,0,1,.44.9,1.06,1.06,0,0,1-1,1.11l1.28,1.81H448l-1.23-1.77h-.12v1.77h-.44v-4.05Zm-.2,1.88h.29c.56,0,.89-.27.89-.74a.64.64,0,0,0-.32-.6,1.18,1.18,0,0,0-.58-.11h-.28Z"/><path class="cls-2" d="M451.64,202.88a1.07,1.07,0,0,0-.24-.31.72.72,0,0,0-.45-.14.62.62,0,0,0-.68.63.44.44,0,0,0,.15.35,1.16,1.16,0,0,0,.43.25l.38.17a1.89,1.89,0,0,1,.63.38,1,1,0,0,1,.29.74,1.3,1.3,0,0,1-2.16.91,1.4,1.4,0,0,1-.37-.71l.43-.12a1,1,0,0,0,.24.51.81.81,0,0,0,.59.22.76.76,0,0,0,.81-.8.61.61,0,0,0-.2-.47,1.81,1.81,0,0,0-.49-.28l-.36-.17a1.6,1.6,0,0,1-.54-.33.86.86,0,0,1-.28-.66,1,1,0,0,1,1.14-1,1.11,1.11,0,0,1,.64.18,1.16,1.16,0,0,1,.4.45Z"/><path class="cls-2" d="M188.39,83.84h-1.8l-.34.83h-1.36l1.91-5h1.41l1.87,5H188.7Zm-.34-1-.56-1.6-.54,1.6Z"/><path class="cls-2" d="M190.92,81.34h1.19v.55a1,1,0,0,1,.47-.46,1.29,1.29,0,0,1,.62-.14l.24,0v1.12a1.08,1.08,0,0,0-.52-.12.76.76,0,0,0-.54.18,1,1,0,0,0-.27.76v1.42h-1.19Z"/><path class="cls-2" d="M194.34,81.34h1.19v.41a1.29,1.29,0,0,1,1-.47,1.48,1.48,0,0,1,.65.15.46.46,0,1,0,.91,0,1.52,1.52,0,0,1,1.62.14,1.21,1.21,0,0,1,.32.91v2.17h-1.2V83c0-.35,0-.59-.17-.72a.44.44,0,0,0-.31-.11.49.49,0,0,0-.35.13.88.88,0,0,0-.22.64v1.7h-1.19V83a1.1,1.1,0,0,0-.16-.72.46.46,0,0,0-.36-.13.43.43,0,0,0-.33.12,1,1,0,0,0-.21.73v1.64h-1.19Z"/><path class="cls-2" d="M181.67,88a1.49,1.49,0,0,1,1,.28,1.17,1.17,0,0,1,.37.87,1.12,1.12,0,0,1-1.28,1.13h-.39v1.76h-.45V88Zm-.28,1.86h.37c.53,0,.85-.27.85-.73,0-.64-.6-.71-.89-.71h-.33Z"/><path class="cls-2" d="M183.89,90a2.1,2.1,0,1,1,2.1,2.09A2.07,2.07,0,0,1,183.89,90Zm.46,0A1.64,1.64,0,1,0,186,88.37,1.65,1.65,0,0,0,184.35,90Z"/><path class="cls-2" d="M189.22,88l1.07,3,1.26-3.24,1.2,3.24,1.18-3h.5l-1.7,4.25L191.55,89l-1.28,3.23L188.72,88Z"/><path class="cls-2" d="M197.5,88.43h-1.64v1.2h1.6v.43h-1.6v1.57h1.64v.42h-2.09V88h2.09Z"/><path class="cls-2" d="M199.38,88a1.79,1.79,0,0,1,1,.22,1.06,1.06,0,0,1,.45.9,1.07,1.07,0,0,1-1,1.12l1.28,1.8h-.54l-1.23-1.77h-.12v1.77h-.45V88Zm-.2,1.87h.29c.55,0,.89-.26.89-.74a.63.63,0,0,0-.32-.59,1.19,1.19,0,0,0-.58-.12h-.28Z"/><path class="cls-2" d="M204,88.81a1,1,0,0,0-.24-.3.72.72,0,0,0-.45-.14.62.62,0,0,0-.68.62.41.41,0,0,0,.15.35,1.41,1.41,0,0,0,.42.26l.39.17a1.89,1.89,0,0,1,.63.38,1,1,0,0,1,.29.73,1.31,1.31,0,0,1-2.16.92,1.58,1.58,0,0,1-.38-.72l.44-.12a1,1,0,0,0,.24.52.8.8,0,0,0,.58.22.77.77,0,0,0,.82-.8.61.61,0,0,0-.2-.47,2,2,0,0,0-.49-.28L203,90a1.78,1.78,0,0,1-.54-.33.83.83,0,0,1-.28-.66,1,1,0,0,1,1.13-1,1.06,1.06,0,0,1,.65.19,1.21,1.21,0,0,1,.4.44Z"/><path class="cls-2" d="M175.64,128.6a2.1,2.1,0,1,1,2.1,2.09A2.05,2.05,0,0,1,175.64,128.6Zm.46,0a1.64,1.64,0,1,0,1.64-1.67A1.65,1.65,0,0,0,176.1,128.6Z"/><path class="cls-2" d="M183.2,127h-1.39v1.19h1.34v.43h-1.34v2h-.45v-4h1.84Z"/><path class="cls-2" d="M186.66,130.62l.67-4.27,1.55,3.41,1.58-3.41.63,4.27h-.46l-.38-2.81-1.37,3-1.36-3-.4,2.81Z"/><path class="cls-2" d="M192.51,128.6a2.1,2.1,0,1,1,2.1,2.09A2.05,2.05,0,0,1,192.51,128.6Zm.46,0a1.64,1.64,0,1,0,1.64-1.67A1.65,1.65,0,0,0,193,128.6Z"/><path class="cls-2" d="M199,126.58a1.49,1.49,0,0,1,.93.25,1,1,0,0,1,.36.84.9.9,0,0,1-.4.79,1,1,0,0,1,.77,1,1.13,1.13,0,0,1-.41.87,1.5,1.5,0,0,1-1,.27h-1v-4Zm-.28,1.77H199c.24,0,.79,0,.79-.67A.69.69,0,0,0,199,127h-.35Zm0,1.84h.52a1.1,1.1,0,0,0,.7-.17.66.66,0,0,0,.27-.55.69.69,0,0,0-.34-.6,1.52,1.52,0,0,0-.69-.12h-.46Z"/><path class="cls-2" d="M202.59,126.58v4h-.45v-4Z"/><path class="cls-2" d="M204.78,126.58v3.61h1.11v.43h-1.56v-4Z"/><path class="cls-2" d="M209.29,127h-1.65v1.2h1.6v.42h-1.6v1.57h1.65v.43h-2.1v-4h2.1Z"/><path class="cls-2" d="M180.1,133.56h.82a2.18,2.18,0,0,1,1.5.48,2,2,0,0,1,.69,1.55,1.94,1.94,0,0,1-.71,1.55,2.05,2.05,0,0,1-1.48.46h-.82Zm.45,3.62h.39a1.76,1.76,0,0,0,1.16-.36,1.58,1.58,0,0,0,.55-1.23,1.56,1.56,0,0,0-1.71-1.6h-.39Z"/><path class="cls-2" d="M186.72,134h-1.64v1.2h1.59v.42h-1.59v1.57h1.64v.42h-2.09v-4h2.09Z"/><path class="cls-2" d="M188.27,133.56l1.14,3.09,1.14-3.09H191l-1.63,4.29-1.64-4.29Z"/><path class="cls-2" d="M192.76,133.56v4h-.45v-4Z"/><path class="cls-2" d="M197.59,134.45a2,2,0,0,0-.53-.37,1.67,1.67,0,0,0-.7-.16,1.67,1.67,0,0,0,0,3.33,1.67,1.67,0,0,0,.75-.19,1.57,1.57,0,0,0,.47-.34v.56a2.14,2.14,0,0,1-1.22.4,2.09,2.09,0,1,1,0-4.18,1.91,1.91,0,0,1,1.19.4Z"/><path class="cls-2" d="M201.21,134h-1.65v1.2h1.6v.42h-1.6v1.57h1.65v.42h-2.1v-4h2.1Z"/><path class="cls-2" d="M204.53,134.36a.86.86,0,0,0-.23-.3.75.75,0,0,0-.46-.14.62.62,0,0,0-.68.62.45.45,0,0,0,.16.36,1.38,1.38,0,0,0,.42.25l.39.17a2,2,0,0,1,.62.38,1,1,0,0,1,.29.73,1.22,1.22,0,0,1-1.28,1.25,1.2,1.2,0,0,1-.87-.33,1.44,1.44,0,0,1-.38-.72l.44-.12a.93.93,0,0,0,.24.52.77.77,0,0,0,.58.22.76.76,0,0,0,.81-.8.58.58,0,0,0-.2-.47,1.73,1.73,0,0,0-.48-.28l-.37-.17a2.06,2.06,0,0,1-.54-.33.86.86,0,0,1-.27-.66,1,1,0,0,1,1.13-1,1.05,1.05,0,0,1,.65.18,1.22,1.22,0,0,1,.39.45Z"/><path class="cls-2" d="M167.92,120.3l5.24-7.28a6.72,6.72,0,0,1-2,.31,7.24,7.24,0,0,1-7.4-7.53,7.88,7.88,0,0,1,15.76-.07,9,9,0,0,1-1.89,5.24l-7.77,10.73Zm-1.64-14.57a5.34,5.34,0,0,0,10.68,0,5.34,5.34,0,1,0-10.68,0Z"/><path class="cls-2" d="M183.84,118.15a16.48,16.48,0,0,1,0-16.76,6.72,6.72,0,0,1,11.71,0,16.42,16.42,0,0,1,0,16.76,6.72,6.72,0,0,1-11.71,0Zm1.92-15.32a15.17,15.17,0,0,0,0,13.88,4.33,4.33,0,0,0,7.87,0,15.17,15.17,0,0,0,0-13.88,4.33,4.33,0,0,0-7.87,0Z"/><path class="cls-2" d="M210.48,103.1a5,5,0,1,1-5-5A4.92,4.92,0,0,1,210.48,103.1Zm-2.06,0a2.91,2.91,0,1,0-2.91,3.08A3,3,0,0,0,208.42,103.1Zm9.15-5.2,1.33.76L205.58,121.6l-1.33-.79Zm5,18.54a5,5,0,1,1-5-5A4.92,4.92,0,0,1,222.6,116.44Zm-2.06,0a3,3,0,0,0-2.91-3.08,3.08,3.08,0,0,0,0,6.15A3,3,0,0,0,220.54,116.44Z"/><path class="cls-2" d="M48.63,258.93H37.54v-2.06H52.42L38.88,277.58l-1.76-1.18Z"/><path class="cls-2" d="M54.7,274.43a14.55,14.55,0,0,1,0-14.86,6,6,0,0,1,10.38,0,14.55,14.55,0,0,1,0,14.86,6,6,0,0,1-10.38,0Zm1.7-13.59a13.46,13.46,0,0,0,0,12.31,3.83,3.83,0,0,0,7,0,13.46,13.46,0,0,0,0-12.31,3.84,3.84,0,0,0-7,0Z"/><path class="cls-2" d="M78.32,261.08a4.41,4.41,0,1,1-4.41-4.39A4.37,4.37,0,0,1,78.32,261.08Zm-1.83,0a2.58,2.58,0,1,0-5.16,0,2.58,2.58,0,1,0,5.16,0Zm8.11-4.6,1.19.66L74,277.49l-1.18-.7Zm4.47,16.43a4.41,4.41,0,1,1-4.41-4.4A4.37,4.37,0,0,1,89.07,272.91Zm-1.83,0a2.58,2.58,0,1,0-2.58,2.73A2.63,2.63,0,0,0,87.24,272.91Z"/><path class="cls-2" d="M58.14,238.51H56.68l-.27.68H55.3l1.55-4H58l1.52,4H58.39Zm-.27-.8-.46-1.3-.44,1.3Z"/><path class="cls-2" d="M60.19,236.48h1v.45a.89.89,0,0,1,.39-.38,1,1,0,0,1,.5-.11h.19v.92a.78.78,0,0,0-.42-.1.63.63,0,0,0-.44.15.85.85,0,0,0-.22.62v1.15h-1Z"/><path class="cls-2" d="M63,236.48h1v.33a1,1,0,0,1,.81-.37,1.11,1.11,0,0,1,.52.12.83.83,0,0,1,.38.39.89.89,0,0,1,.36-.38,1.12,1.12,0,0,1,.57-.13,1.1,1.1,0,0,1,.75.24,1,1,0,0,1,.25.75v1.76h-1v-1.34a.87.87,0,0,0-.13-.58.42.42,0,0,0-.54,0,.67.67,0,0,0-.18.51v1.39h-1v-1.34a.86.86,0,0,0-.13-.58.37.37,0,0,0-.29-.11.33.33,0,0,0-.26.1.79.79,0,0,0-.17.59v1.34H63Z"/><path class="cls-2" d="M39.24,242.56v3.62h-.45v-3.62h-1v-.42h2.41v.42Z"/><path class="cls-2" d="M43.62,242.56H42v1.2h1.6v.43H42v1.56h1.65v.43h-2.1v-4h2.1Z"/><path class="cls-2" d="M48.23,243a2,2,0,0,0-.53-.38,1.83,1.83,0,0,0-.7-.15,1.67,1.67,0,0,0,0,3.33,1.67,1.67,0,0,0,.75-.19,2.29,2.29,0,0,0,.47-.34v.56a2.12,2.12,0,0,1-1.22.39,2.09,2.09,0,1,1,0-4.18,1.91,1.91,0,0,1,1.2.4Z"/><path class="cls-2" d="M50.2,243.78h2.07v-1.64h.45v4h-.45v-2H50.2v2h-.45v-4h.45Z"/><path class="cls-2" d="M54.46,246.18V242l3.15,3.3v-3.13h.45v4.22l-3.15-3.3v3.12Z"/><path class="cls-2" d="M59.58,244.16a2.1,2.1,0,1,1,2.1,2.09A2.07,2.07,0,0,1,59.58,244.16Zm.46,0a1.64,1.64,0,1,0,1.64-1.66A1.65,1.65,0,0,0,60,244.16Z"/><path class="cls-2" d="M65.75,242.14v3.61h1.12v.43H65.3v-4Z"/><path class="cls-2" d="M67.75,244.16a2.1,2.1,0,1,1,2.1,2.09A2.07,2.07,0,0,1,67.75,244.16Zm.46,0a1.64,1.64,0,1,0,1.64-1.66A1.65,1.65,0,0,0,68.21,244.16Z"/><path class="cls-2" d="M75.56,244.15h1.68v.1a2.17,2.17,0,0,1-.39,1.27,1.78,1.78,0,0,1-1.5.73,2.09,2.09,0,1,1,0-4.18,2,2,0,0,1,1.24.4,2.65,2.65,0,0,1,.47.48l-.34.3a2.22,2.22,0,0,0-.38-.42,1.52,1.52,0,0,0-1-.33,1.67,1.67,0,0,0,0,3.33,1.41,1.41,0,0,0,1.23-.68,1.29,1.29,0,0,0,.17-.58h-1.2Z"/><path class="cls-2" d="M79.21,242.14v4h-.45v-4Z"/><path class="cls-2" d="M83.05,242.56H81.4v1.2H83v.43H81.4v1.56h1.65v.43H81v-4h2.1Z"/><path class="cls-2" d="M86.37,242.94a1,1,0,0,0-.23-.31.76.76,0,0,0-.46-.13.62.62,0,0,0-.68.62.42.42,0,0,0,.16.35,1.2,1.2,0,0,0,.42.25l.39.17a2.18,2.18,0,0,1,.62.39.94.94,0,0,1,.29.73,1.21,1.21,0,0,1-1.28,1.24,1.16,1.16,0,0,1-.87-.33,1.5,1.5,0,0,1-.38-.71l.44-.12a.9.9,0,0,0,.24.51.76.76,0,0,0,.58.23.77.77,0,0,0,.81-.8.61.61,0,0,0-.2-.48,1.74,1.74,0,0,0-.48-.27l-.37-.17a1.94,1.94,0,0,1-.53-.34.82.82,0,0,1-.28-.66,1,1,0,0,1,1.13-1,1.12,1.12,0,0,1,.65.18,1.3,1.3,0,0,1,.39.45Z"/><path class="cls-2" d="M53.46,249.12a1.72,1.72,0,0,1,1,.23,1,1,0,0,1,.45.89,1.07,1.07,0,0,1-1,1.12l1.28,1.8h-.54l-1.23-1.77h-.12v1.77h-.44v-4Zm-.2,1.88h.29c.56,0,.89-.27.89-.74a.64.64,0,0,0-.32-.6,1.18,1.18,0,0,0-.58-.11h-.28Z"/><path class="cls-2" d="M58.65,249.55H57v1.2h1.6v.42H57v1.57h1.65v.42h-2.1v-4h2.1Z"/><path class="cls-2" d="M62.4,252H60.68l-.48,1.13h-.5l1.86-4.23,1.81,4.23h-.5Zm-.17-.43L61.55,250l-.69,1.62Z"/><path class="cls-2" d="M67.6,250a2.24,2.24,0,0,0-.53-.37,1.66,1.66,0,0,0-.69-.16,1.63,1.63,0,0,0-1.63,1.69,1.61,1.61,0,0,0,1.63,1.64,1.63,1.63,0,0,0,.75-.19,1.79,1.79,0,0,0,.47-.33v.55a2.12,2.12,0,0,1-1.22.4,2.09,2.09,0,1,1,0-4.18,1.89,1.89,0,0,1,1.19.4Z"/><path class="cls-2" d="M69.57,250.77h2.07v-1.65h.45v4h-.45v-2H69.57v2h-.45v-4h.45Z"/><path class="cls-2" d="M39.36,283a2.11,2.11,0,1,1,2.11,2.09A2.06,2.06,0,0,1,39.36,283Zm.46,0a1.65,1.65,0,1,0,1.65-1.67A1.65,1.65,0,0,0,39.82,283Z"/><path class="cls-2" d="M46.93,281.38H45.54v1.19h1.34V283H45.54v2h-.45v-4h1.84Z"/><path class="cls-2" d="M51.52,281.38V285h-.45v-3.61h-1V281H52.5v.43Z"/><path class="cls-2" d="M54.25,282.59h2.07V281h.45v4h-.45v-2H54.25v2H53.8v-4h.45Z"/><path class="cls-2" d="M60.61,281.38H59v1.2h1.6V283H59v1.57h1.65V285h-2.1v-4h2.1Z"/><path class="cls-2" d="M66.32,283H68v.1a2.27,2.27,0,0,1-.39,1.28,1.83,1.83,0,0,1-1.5.73,2.09,2.09,0,1,1,0-4.18,1.94,1.94,0,0,1,1.23.4,2.61,2.61,0,0,1,.47.47l-.33.31a2.25,2.25,0,0,0-.38-.42,1.5,1.5,0,0,0-1-.34,1.67,1.67,0,0,0,0,3.33,1.4,1.4,0,0,0,1.24-.68,1.25,1.25,0,0,0,.16-.57h-1.2Z"/><path class="cls-2" d="M70,281v3.62h1.11V285H69.53v-4Z"/><path class="cls-2" d="M72,283a2.1,2.1,0,1,1,2.1,2.09A2.06,2.06,0,0,1,72,283Zm.46,0a1.64,1.64,0,1,0,1.64-1.67A1.65,1.65,0,0,0,72.43,283Z"/><path class="cls-2" d="M78.42,281a1.49,1.49,0,0,1,.93.26,1,1,0,0,1,.36.83.92.92,0,0,1-.4.8,1,1,0,0,1,.77,1,1.12,1.12,0,0,1-.41.88,1.49,1.49,0,0,1-1,.26h-1v-4Zm-.27,1.78h.33c.24,0,.8-.05.8-.68s-.66-.67-.78-.67h-.35Zm0,1.84h.51a1.14,1.14,0,0,0,.71-.17.69.69,0,0,0,.27-.56.64.64,0,0,0-.35-.59,1.33,1.33,0,0,0-.68-.12h-.46Z"/><path class="cls-2" d="M83.83,283.85H82.11L81.63,285h-.5L83,280.76,84.8,285h-.49Zm-.17-.42L83,281.81l-.69,1.62Z"/><path class="cls-2" d="M86.52,281v3.62h1.11V285H86.07v-4Z"/><path class="cls-2" d="M44.79,287.94a1.47,1.47,0,0,1,1,.28,1.14,1.14,0,0,1,.37.87,1.11,1.11,0,0,1-1.27,1.13h-.4V292h-.45v-4Zm-.29,1.86h.37c.53,0,.86-.27.86-.73,0-.65-.6-.71-.9-.71H44.5Z"/><path class="cls-2" d="M47.29,290a2.11,2.11,0,1,1,2.11,2.09A2.07,2.07,0,0,1,47.29,290Zm.47,0a1.64,1.64,0,1,0,1.64-1.66A1.65,1.65,0,0,0,47.76,290Z"/><path class="cls-2" d="M53.75,287.94a1.49,1.49,0,0,1,1,.28,1.14,1.14,0,0,1,.37.87,1.12,1.12,0,0,1-1.28,1.13h-.39V292H53v-4Zm-.28,1.86h.37c.53,0,.85-.27.85-.73,0-.65-.6-.71-.89-.71h-.33Z"/><path class="cls-2" d="M56.93,290.42a1.16,1.16,0,0,0,.32,1,1.13,1.13,0,0,0,.67.23,1.1,1.1,0,0,0,.66-.23,1.16,1.16,0,0,0,.32-1v-2.48h.45v2.6a1.56,1.56,0,0,1-.25,1,1.56,1.56,0,0,1-2.36,0,1.57,1.57,0,0,1-.26-1v-2.6h.45Z"/><path class="cls-2" d="M61.54,287.94v3.62h1.12V292H61.09v-4Z"/><path class="cls-2" d="M66.19,290.84H64.47L64,292h-.49l1.86-4.23L67.16,292h-.5Zm-.18-.42-.68-1.62-.69,1.62Z"/><path class="cls-2" d="M69.15,288.36V292H68.7v-3.62h-1v-.42h2.41v.42Z"/><path class="cls-2" d="M71.88,287.94v4h-.45v-4Z"/><path class="cls-2" d="M73.4,290a2.1,2.1,0,1,1,2.1,2.09A2.07,2.07,0,0,1,73.4,290Zm.46,0a1.64,1.64,0,1,0,1.64-1.66A1.65,1.65,0,0,0,73.86,290Z"/><path class="cls-2" d="M79.13,292v-4.21l3.15,3.3v-3.13h.45v4.22l-3.15-3.3V292Z"/><path class="cls-2" d="M402.79,148.32h-2.91l.55-1.12H404v18.64h-1.23Z"/><path class="cls-2" d="M409,164l1.12.34L408.05,170l-.73-.28Z"/><path class="cls-2" d="M422.79,149.22a12.45,12.45,0,0,1,0,14.64,5.35,5.35,0,0,1-8.78,0,12.45,12.45,0,0,1,0-14.64,5.38,5.38,0,0,1,8.78,0Zm-.92,13.91a11.82,11.82,0,0,0,0-13.19,4.15,4.15,0,0,0-6.94,0,11.78,11.78,0,0,0,0,13.19,4.12,4.12,0,0,0,6.94,0Z"/><path class="cls-2" d="M438.41,149.22a12.45,12.45,0,0,1,0,14.64,5.36,5.36,0,0,1-8.79,0,12.45,12.45,0,0,1,0-14.64,5.39,5.39,0,0,1,8.79,0Zm-.93,13.91a11.78,11.78,0,0,0,0-13.19,4.15,4.15,0,0,0-6.94,0,11.82,11.82,0,0,0,0,13.19,4.12,4.12,0,0,0,6.94,0Z"/><path class="cls-2" d="M453.74,149.22a12.45,12.45,0,0,1,0,14.64,5.35,5.35,0,0,1-8.78,0,12.45,12.45,0,0,1,0-14.64,5.38,5.38,0,0,1,8.78,0Zm-.92,13.91a11.82,11.82,0,0,0,0-13.19,4.15,4.15,0,0,0-6.94,0,11.78,11.78,0,0,0,0,13.19,4.12,4.12,0,0,0,6.94,0Z"/><path class="cls-2" d="M329.09,434h-2.74l.53-1h3.38v17.56h-1.17Z"/><path class="cls-2" d="M344.21,445.88a5.09,5.09,0,0,1-10.18,0,4.61,4.61,0,0,1,2.87-4.45,4.45,4.45,0,0,1-2.45-4.05,4.67,4.67,0,0,1,9.34,0,4.46,4.46,0,0,1-2.46,4.05A4.61,4.61,0,0,1,344.21,445.88Zm-1.21,0a3.88,3.88,0,1,0-3.88,3.9A3.76,3.76,0,0,0,343,445.88Zm-.43-8.5a3.46,3.46,0,1,0-3.45,3.55A3.45,3.45,0,0,0,342.57,437.38Z"/><path class="cls-2" d="M356.39,434.87a11.71,11.71,0,0,1,0,13.8,5,5,0,0,1-8.28,0,11.75,11.75,0,0,1,0-13.8,5.09,5.09,0,0,1,8.28,0ZM355.52,448a11.11,11.11,0,0,0,0-12.43,3.91,3.91,0,0,0-6.54,0A11.11,11.11,0,0,0,349,448a3.88,3.88,0,0,0,6.54,0Z"/><path class="cls-2" d="M386.17,433H390c3.06,0,4.85,1.76,4.85,4.4a4.26,4.26,0,0,1-2.06,3.84,4.21,4.21,0,0,1,3.65,4.4c0,3.08-2.27,4.92-5.47,4.92h-4.82Zm1.16,7.95h2.79a3.34,3.34,0,0,0,2.4-.74,3.28,3.28,0,0,0,1.17-2.68,3.39,3.39,0,0,0-1.19-2.74,4.59,4.59,0,0,0-2.93-.74h-2.24Zm0,8.56h2.95a5.37,5.37,0,0,0,3.83-1.05,3.41,3.41,0,0,0,1.13-2.69,3.21,3.21,0,0,0-1.87-3.27,7.89,7.89,0,0,0-3.3-.5h-2.74Z"/><path class="cls-2" d="M400.09,433v17.56h-1.16V433Z"/><path class="cls-2" d="M404.68,433v16.51h4.91v1.05h-6.07V433Z"/><path class="cls-2" d="M412.7,433v16.51h4.91v1.05h-6.07V433Z"/><path class="cls-2" d="M420.72,433v17.56h-1.16V433Z"/><path class="cls-2" d="M440.93,441.8a9.13,9.13,0,1,1-9.13-9.06A9,9,0,0,1,440.93,441.8Zm-1.22,0a7.92,7.92,0,1,0-7.91,8A7.81,7.81,0,0,0,439.71,441.8Z"/><path class="cls-2" d="M442.87,450.54V432.79l14.78,15.44V433h1.16v18L444,435.56v15Z"/><line class="cls-1" x1="466.97" y1="148.33" x2="466.97" y2="164.92"/><line class="cls-1" x1="458.66" y1="156.63" x2="475.27" y2="156.63"/><line class="cls-1" x1="368.68" y1="433.42" x2="368.68" y2="450.01"/><line class="cls-1" x1="360.37" y1="441.71" x2="376.99" y2="441.71"/><path class="cls-2" d="M341.21,469h-1.47l-.27.68h-1.11l1.55-4h1.15l1.52,4h-1.12Zm-.28-.8-.46-1.31-.44,1.31Z"/><path class="cls-2" d="M343.32,466.93h1v.45a.78.78,0,0,1,.38-.38,1,1,0,0,1,.5-.11h.2v.92a.82.82,0,0,0-.42-.1.64.64,0,0,0-.45.15.81.81,0,0,0-.21.61v1.16h-1Z"/><path class="cls-2" d="M346.16,466.93h1v.33a1,1,0,0,1,.81-.38,1.08,1.08,0,0,1,.52.13.86.86,0,0,1,.38.38.93.93,0,0,1,.37-.37,1.08,1.08,0,0,1,.56-.14,1.11,1.11,0,0,1,.75.25,1,1,0,0,1,.26.75v1.76h-1V468.3a.8.8,0,0,0-.14-.58.42.42,0,0,0-.54,0,.67.67,0,0,0-.18.51v1.39h-1V468.3a.85.85,0,0,0-.12-.58.39.39,0,0,0-.29-.11.34.34,0,0,0-.27.1.79.79,0,0,0-.17.59v1.34h-1Z"/><path class="cls-2" d="M351.78,468.13h1.34v.44h-1.34Z"/><path class="cls-2" d="M355.27,465.6a1.54,1.54,0,0,1,.93.25,1,1,0,0,1,.36.84.9.9,0,0,1-.4.79,1,1,0,0,1,.77,1,1.1,1.1,0,0,1-.41.87,1.45,1.45,0,0,1-1,.27h-1v-4Zm-.27,1.78h.33c.24,0,.8-.05.8-.68s-.66-.68-.78-.68H355Zm0,1.84h.51a1.14,1.14,0,0,0,.71-.17.68.68,0,0,0,.26-.56.64.64,0,0,0-.34-.59,1.32,1.32,0,0,0-.68-.13H355Z"/><path class="cls-2" d="M360.59,468.5h-1.72l-.48,1.14h-.5l1.86-4.23,1.81,4.23h-.49Zm-.17-.42-.68-1.62-.69,1.62Z"/><path class="cls-2" d="M364.48,466.4a1,1,0,0,0-.24-.3.72.72,0,0,0-.45-.14.62.62,0,0,0-.68.62.41.41,0,0,0,.15.35,1.41,1.41,0,0,0,.42.26l.39.17a1.89,1.89,0,0,1,.63.38,1,1,0,0,1,.29.73,1.31,1.31,0,0,1-2.16.92,1.47,1.47,0,0,1-.37-.72l.43-.12a1,1,0,0,0,.24.52.8.8,0,0,0,.58.22.77.77,0,0,0,.82-.8.61.61,0,0,0-.2-.47,1.71,1.71,0,0,0-.49-.28l-.36-.17a1.78,1.78,0,0,1-.54-.33.83.83,0,0,1-.28-.66,1,1,0,0,1,1.13-1.05,1.12,1.12,0,0,1,.65.18,1.23,1.23,0,0,1,.4.45Z"/><path class="cls-2" d="M368.51,466h-1.64v1.2h1.59v.43h-1.59v1.57h1.64v.42h-2.09v-4h2.09Z"/><path class="cls-2" d="M369.94,465.6h.83a2.2,2.2,0,0,1,1.49.47,2,2,0,0,1,.69,1.55,1.91,1.91,0,0,1-.71,1.55,2,2,0,0,1-1.48.47h-.82Zm.45,3.62h.4a1.7,1.7,0,0,0,1.15-.37,1.51,1.51,0,0,0,.55-1.23,1.56,1.56,0,0,0-1.7-1.6h-.4Z"/><path class="cls-2" d="M379.49,466.49a1.78,1.78,0,0,0-.53-.37,1.67,1.67,0,0,0-.7-.16,1.67,1.67,0,0,0,0,3.33,1.67,1.67,0,0,0,.75-.19,1.77,1.77,0,0,0,.47-.34v.56a2.12,2.12,0,0,1-1.22.39,2.09,2.09,0,1,1,0-4.18,1.91,1.91,0,0,1,1.2.4Z"/><path class="cls-2" d="M381.37,467.24h2.07V465.6h.45v4h-.45v-2h-2.07v2h-.45v-4h.45Z"/><path class="cls-2" d="M386,465.6v4h-.45v-4Z"/><path class="cls-2" d="M388.37,465.6a1.47,1.47,0,0,1,1,.28,1.14,1.14,0,0,1,.37.87,1.12,1.12,0,0,1-1.28,1.13h-.39v1.76h-.45v-4Zm-.29,1.86h.37c.53,0,.85-.27.85-.73,0-.65-.6-.71-.89-.71h-.33Z"/><path class="cls-2" d="M392.81,466.4a1,1,0,0,0-.24-.3.72.72,0,0,0-.45-.14.62.62,0,0,0-.68.62.41.41,0,0,0,.15.35,1.41,1.41,0,0,0,.42.26l.39.17a1.75,1.75,0,0,1,.62.38,1,1,0,0,1,.3.73,1.31,1.31,0,0,1-2.16.92,1.58,1.58,0,0,1-.38-.72l.44-.12a1,1,0,0,0,.24.52.8.8,0,0,0,.58.22.77.77,0,0,0,.82-.8.61.61,0,0,0-.2-.47,1.71,1.71,0,0,0-.49-.28l-.36-.17a1.78,1.78,0,0,1-.54-.33.83.83,0,0,1-.28-.66,1,1,0,0,1,1.13-1.05,1.12,1.12,0,0,1,.65.18,1.3,1.3,0,0,1,.39.45Z"/><path class="cls-2" d="M398.57,466.4a1,1,0,0,0-.24-.3.72.72,0,0,0-.45-.14.62.62,0,0,0-.68.62.41.41,0,0,0,.15.35,1.34,1.34,0,0,0,.43.26l.38.17a1.89,1.89,0,0,1,.63.38,1,1,0,0,1,.29.73,1.31,1.31,0,0,1-2.16.92,1.47,1.47,0,0,1-.37-.72l.43-.12a1,1,0,0,0,.24.52.81.81,0,0,0,.59.22.76.76,0,0,0,.81-.8.61.61,0,0,0-.2-.47,1.58,1.58,0,0,0-.49-.28l-.36-.17a1.78,1.78,0,0,1-.54-.33.86.86,0,0,1-.28-.66,1,1,0,0,1,1.13-1.05,1.12,1.12,0,0,1,.65.18,1.23,1.23,0,0,1,.4.45Z"/><path class="cls-2" d="M401,467.24H403V465.6h.45v4H403v-2H401v2h-.45v-4H401Z"/><path class="cls-2" d="M405.58,465.6v4h-.45v-4Z"/><path class="cls-2" d="M408,465.6a1.47,1.47,0,0,1,1,.28,1.14,1.14,0,0,1,.37.87,1.12,1.12,0,0,1-1.28,1.13h-.39v1.76h-.45v-4Zm-.29,1.86H408c.53,0,.85-.27.85-.73,0-.65-.6-.71-.89-.71h-.33Z"/><path class="cls-2" d="M411.32,465.6a1.49,1.49,0,0,1,1,.28,1.14,1.14,0,0,1,.37.87,1.12,1.12,0,0,1-1.28,1.13H411v1.76h-.45v-4Zm-.28,1.86h.37c.53,0,.85-.27.85-.73,0-.65-.6-.71-.89-.71H411Z"/><path class="cls-2" d="M416.06,466h-1.65v1.2H416v.43h-1.6v1.57h1.65v.42H414v-4h2.1Z"/><path class="cls-2" d="M417.49,465.6h.82a2.19,2.19,0,0,1,1.49.47,2,2,0,0,1,.69,1.55,1.91,1.91,0,0,1-.71,1.55,2,2,0,0,1-1.48.47h-.81Zm.44,3.62h.4a1.74,1.74,0,0,0,1.16-.37,1.54,1.54,0,0,0,.54-1.23,1.56,1.56,0,0,0-1.7-1.6h-.4Z"/><path class="cls-2" d="M424.93,466v3.62h-.44V466h-1v-.42h2.42V466Z"/><path class="cls-2" d="M426.7,467.62a2.1,2.1,0,1,1,2.1,2.09A2.07,2.07,0,0,1,426.7,467.62Zm.46,0A1.64,1.64,0,1,0,428.8,466,1.65,1.65,0,0,0,427.16,467.62Z"/><path class="cls-2" d="M434.35,465.6h.82a2.21,2.21,0,0,1,1.5.47,2,2,0,0,1,.69,1.55,1.91,1.91,0,0,1-.71,1.55,2,2,0,0,1-1.48.47h-.82Zm.45,3.62h.39a1.72,1.72,0,0,0,1.16-.37,1.62,1.62,0,0,0-1.16-2.83h-.39Z"/><path class="cls-2" d="M441,468.5H439.3l-.49,1.14h-.49l1.85-4.23,1.82,4.23h-.5Zm-.18-.42-.68-1.62-.69,1.62Z"/><path class="cls-2" d="M443.88,466v3.62h-.44V466h-1v-.42h2.42V466Z"/><path class="cls-2" d="M448.17,466h-1.64v1.2h1.59v.43h-1.59v1.57h1.64v.42h-2.09v-4h2.09Z"/><rect class="cls-1" x="318.93" y="460.73" width="149.54" height="13.83"/><polyline class="cls-1" points="353.63 32.92 339.16 32.92 339.16 75.5 405.7 75.5 405.7 58.46"/><rect class="cls-1" x="353.24" y="16.06" width="66.54" height="42.58"/><g id="Artwork_5" data-name="Artwork 5"><path class="cls-2" d="M375.05,31.31h2.8v12h-2.8V42.07a4.62,4.62,0,0,1-3.6,1.63c-3.72,0-5.84-3.09-5.84-6.4,0-3.91,2.69-6.31,5.87-6.31a4.4,4.4,0,0,1,3.57,1.71Zm-6.58,6.05c0,2.08,1.32,3.82,3.35,3.82,1.77,0,3.4-1.28,3.4-3.79s-1.63-3.89-3.4-3.89c-2,0-3.35,1.72-3.35,3.86m12.72-6.05H384v1.08a5,5,0,0,1,1.17-1,3.31,3.31,0,0,1,1.72-.4,4.21,4.21,0,0,1,2.2.57l-1.14,2.54a2.52,2.52,0,0,0-1.43-.42,2.2,2.2,0,0,0-1.75.65A3.88,3.88,0,0,0,384,37.1v6.23h-2.8Zm23.43,5.39a5.65,5.65,0,0,0-.26-2.14,1.58,1.58,0,0,0-1.6-1.06,2.08,2.08,0,0,0-1.66.89,4.82,4.82,0,0,0-.54,2.74v6.2h-2.81V36.7a5.76,5.76,0,0,0-.25-2.14,1.6,1.6,0,0,0-1.61-1.06,2.08,2.08,0,0,0-1.65.89,4.82,4.82,0,0,0-.55,2.74v6.2h-2.8v-12h2.8v1.11a3.73,3.73,0,0,1,3-1.43,3.53,3.53,0,0,1,3.11,1.77A4.27,4.27,0,0,1,403.36,31a3.86,3.86,0,0,1,3.43,1.89,5.87,5.87,0,0,1,.63,3v7.43h-2.8V36.7"/></g><g id="Artwork_5-2" data-name="Artwork 5"><path class="cls-2" d="M178.32,186.25h3.45v14.8h-3.45V199.5a5.67,5.67,0,0,1-4.43,2c-4.58,0-7.18-3.79-7.18-7.87,0-4.81,3.31-7.77,7.21-7.77a5.41,5.41,0,0,1,4.4,2.11Zm-8.09,7.45c0,2.57,1.62,4.71,4.12,4.71,2.18,0,4.18-1.58,4.18-4.67,0-3.24-2-4.78-4.18-4.78-2.5,0-4.12,2.11-4.12,4.74m15.65-7.45h3.45v1.34a6,6,0,0,1,1.44-1.23,4,4,0,0,1,2.11-.5,5.05,5.05,0,0,1,2.71.71l-1.4,3.13a3.08,3.08,0,0,0-1.76-.53,2.67,2.67,0,0,0-2.15.81,4.76,4.76,0,0,0-.95,3.41v7.66h-3.45Zm28.84,6.64a6.78,6.78,0,0,0-.32-2.63,2,2,0,0,0-2-1.3,2.51,2.51,0,0,0-2,1.09,6,6,0,0,0-.67,3.37v7.63h-3.45v-8.16a6.78,6.78,0,0,0-.32-2.63,2,2,0,0,0-2-1.3,2.54,2.54,0,0,0-2,1.09,6,6,0,0,0-.67,3.37v7.63h-3.45v-14.8h3.45v1.37a4.6,4.6,0,0,1,3.66-1.76,4.37,4.37,0,0,1,3.84,2.18,5.27,5.27,0,0,1,4.4-2.18,4.75,4.75,0,0,1,4.22,2.32,7.34,7.34,0,0,1,.78,3.73v9.14h-3.45v-8.16"/></g><path class="cls-2" d="M116,463.1l1.06,3,1.27-3.23,1.2,3.23,1.18-3h.5l-1.7,4.25-1.19-3.24-1.27,3.24-1.55-4.25Z"/><path class="cls-2" d="M122.29,465.12a2.1,2.1,0,1,1,2.1,2.09A2.05,2.05,0,0,1,122.29,465.12Zm.46,0a1.64,1.64,0,1,0,1.64-1.67A1.65,1.65,0,0,0,122.75,465.12Z"/><path class="cls-2" d="M128.66,463.1a1.73,1.73,0,0,1,1,.22,1.12,1.12,0,0,1-.57,2l1.28,1.81h-.55l-1.22-1.77h-.12v1.77H128v-4Zm-.2,1.87h.28c.56,0,.9-.27.9-.74a.61.61,0,0,0-.33-.59,1.07,1.07,0,0,0-.58-.12h-.27Z"/><path class="cls-2" d="M132.2,463.1v3.61h1.11v.43h-1.56v-4Z"/><path class="cls-2" d="M134.62,463.1h.82a2.19,2.19,0,0,1,1.49.47,2,2,0,0,1,.69,1.55,1.92,1.92,0,0,1-.71,1.55,2,2,0,0,1-1.47.47h-.82Zm.45,3.61h.39a1.72,1.72,0,0,0,1.16-.36,1.62,1.62,0,0,0-1.16-2.83h-.39Z"/><path class="cls-2" d="M139.46,463l.41.15-.61,1.36-.29-.11Z"/><path class="cls-2" d="M143.05,463.9a.9.9,0,0,0-.24-.31.7.7,0,0,0-.45-.14.62.62,0,0,0-.68.63.41.41,0,0,0,.15.35,1.24,1.24,0,0,0,.43.25l.39.17a2.39,2.39,0,0,1,.62.38,1,1,0,0,1,.29.74,1.21,1.21,0,0,1-1.28,1.24,1.19,1.19,0,0,1-.88-.33,1.4,1.4,0,0,1-.37-.71l.43-.12a.91.91,0,0,0,.25.51.75.75,0,0,0,.58.23.77.77,0,0,0,.81-.8.6.6,0,0,0-.2-.48,1.9,1.9,0,0,0-.48-.28l-.37-.16a1.84,1.84,0,0,1-.54-.34.86.86,0,0,1-.28-.66,1,1,0,0,1,1.14-1,1.14,1.14,0,0,1,.65.18,1.22,1.22,0,0,1,.39.45Z"/><path class="cls-2" d="M116.84,470.08v3.62H118v.42H116.4v-4Z"/><path class="cls-2" d="M121.36,470.51h-1.65v1.2h1.6v.42h-1.6v1.57h1.65v.42h-2.1v-4h2.1Z"/><path class="cls-2" d="M125.11,473h-1.72l-.49,1.14h-.49l1.86-4.23,1.81,4.23h-.5Zm-.18-.42-.68-1.62-.69,1.62Z"/><path class="cls-2" d="M127.35,470.08h.82a2.2,2.2,0,0,1,1.49.47,2,2,0,0,1,.69,1.56,1.94,1.94,0,0,1-.71,1.55,2.05,2.05,0,0,1-1.48.46h-.81Zm.44,3.62h.4a1.74,1.74,0,0,0,1.15-.36,1.62,1.62,0,0,0-1.15-2.83h-.4Z"/><path class="cls-2" d="M132.32,470.08v4h-.45v-4Z"/><path class="cls-2" d="M134.06,474.12v-4.21l3.15,3.3v-3.13h.45v4.22l-3.15-3.3v3.12Z"/><path class="cls-2" d="M141.48,472.09h1.69v.1a2.27,2.27,0,0,1-.39,1.28,1.83,1.83,0,0,1-1.5.73,2.09,2.09,0,1,1,0-4.18,1.94,1.94,0,0,1,1.23.4,2.32,2.32,0,0,1,.47.47l-.33.31a2,2,0,0,0-.39-.42,1.45,1.45,0,0,0-1-.34,1.67,1.67,0,0,0,0,3.33,1.4,1.4,0,0,0,1.24-.68,1.25,1.25,0,0,0,.16-.57h-1.2Z"/><path class="cls-2" d="M103.8,477.87a1,1,0,0,0-.23-.31.76.76,0,0,0-.46-.13.62.62,0,0,0-.68.62.44.44,0,0,0,.15.35,1.59,1.59,0,0,0,.43.26l.39.16a2.18,2.18,0,0,1,.62.39.94.94,0,0,1,.29.73,1.21,1.21,0,0,1-1.28,1.24,1.16,1.16,0,0,1-.87-.33,1.42,1.42,0,0,1-.38-.71l.44-.12a.9.9,0,0,0,.24.51.75.75,0,0,0,.58.23.77.77,0,0,0,.81-.8.58.58,0,0,0-.2-.47,1.52,1.52,0,0,0-.48-.28l-.37-.17a2.13,2.13,0,0,1-.54-.34A.84.84,0,0,1,102,478a1,1,0,0,1,1.13-1,1.12,1.12,0,0,1,.65.18,1.3,1.3,0,0,1,.39.45Z"/><path class="cls-2" d="M107.93,477.49h-1.65v1.2h1.6v.43h-1.6v1.56h1.65v.43h-2.1v-4h2.1Z"/><path class="cls-2" d="M109.31,481.11l.67-4.27,1.55,3.41,1.59-3.41.63,4.27h-.46l-.39-2.81-1.37,3-1.36-3-.4,2.81Z"/><path class="cls-2" d="M115.83,477.07v4h-.45v-4Z"/><path class="cls-2" d="M120.65,478a1.94,1.94,0,0,0-.52-.38,1.83,1.83,0,0,0-.7-.15,1.67,1.67,0,0,0,0,3.33,1.67,1.67,0,0,0,.75-.19,1.91,1.91,0,0,0,.46-.34v.56a2.07,2.07,0,0,1-1.21.39,2.09,2.09,0,1,1,0-4.18,1.89,1.89,0,0,1,1.19.4Z"/><path class="cls-2" d="M122,479.09a2.1,2.1,0,1,1,2.1,2.09A2.07,2.07,0,0,1,122,479.09Zm.46,0a1.64,1.64,0,1,0,1.64-1.66A1.65,1.65,0,0,0,122.42,479.09Z"/><path class="cls-2" d="M127.68,481.11V476.9l3.15,3.3v-3.13h.45v4.22l-3.15-3.3v3.12Z"/><path class="cls-2" d="M133,477.07h.83a2.2,2.2,0,0,1,1.49.47,2,2,0,0,1,.69,1.55,1.92,1.92,0,0,1-.71,1.55,2,2,0,0,1-1.48.47H133Zm.45,3.61h.39a1.7,1.7,0,0,0,1.16-.36,1.62,1.62,0,0,0-1.16-2.83h-.39Z"/><path class="cls-2" d="M138,479.55a1.17,1.17,0,0,0,.32,1,1.08,1.08,0,0,0,1.33,0,1.17,1.17,0,0,0,.32-1v-2.48h.45v2.6a1.63,1.63,0,0,1-.25,1,1.57,1.57,0,0,1-2.37,0,1.63,1.63,0,0,1-.25-1v-2.6H138Z"/><path class="cls-2" d="M145.25,478a2,2,0,0,0-.53-.38,1.82,1.82,0,0,0-.69-.15,1.67,1.67,0,1,0,.75,3.14,2,2,0,0,0,.47-.34v.56a2.1,2.1,0,0,1-1.22.39,2.09,2.09,0,1,1,0-4.18,1.89,1.89,0,0,1,1.19.4Z"/><path class="cls-2" d="M147.77,477.49v3.62h-.45v-3.62h-1v-.42h2.41v.42Z"/><path class="cls-2" d="M149.62,479.09a2.1,2.1,0,1,1,2.1,2.09A2.07,2.07,0,0,1,149.62,479.09Zm.46,0a1.64,1.64,0,1,0,1.64-1.66A1.65,1.65,0,0,0,150.08,479.09Z"/><path class="cls-2" d="M156,477.07a1.83,1.83,0,0,1,1,.22,1.08,1.08,0,0,1,.44.9,1.06,1.06,0,0,1-1,1.11l1.29,1.81h-.55l-1.23-1.77h-.11v1.77h-.45v-4Zm-.2,1.87h.28c.56,0,.89-.27.89-.74a.63.63,0,0,0-.32-.59,1.09,1.09,0,0,0-.58-.12h-.27Z"/><path class="cls-2" d="M110.66,484.05v4h-.45v-4Z"/><path class="cls-2" d="M113.13,484.05a1.44,1.44,0,0,1,1,.29,1.11,1.11,0,0,1,.37.87,1.13,1.13,0,0,1-1.28,1.13h-.39v1.75h-.45v-4Zm-.28,1.86h.37c.53,0,.85-.26.85-.73,0-.64-.6-.7-.89-.7h-.33Z"/><path class="cls-2" d="M121.06,484.94a2.24,2.24,0,0,0-.53-.37,1.67,1.67,0,0,0-.7-.16,1.67,1.67,0,0,0,0,3.33,1.66,1.66,0,0,0,.75-.18,2.29,2.29,0,0,0,.47-.34v.55a2.14,2.14,0,0,1-1.22.4,2.09,2.09,0,1,1,0-4.18,1.91,1.91,0,0,1,1.2.4Z"/><path class="cls-2" d="M122.36,486.08a2.1,2.1,0,1,1,2.1,2.09A2.06,2.06,0,0,1,122.36,486.08Zm.46,0a1.64,1.64,0,1,0,1.64-1.67A1.65,1.65,0,0,0,122.82,486.08Z"/><path class="cls-2" d="M128,488.09l.67-4.26,1.55,3.41,1.58-3.42.63,4.27h-.46l-.38-2.81-1.37,3-1.36-3-.4,2.81Z"/><path class="cls-2" d="M134.75,484.05a1.43,1.43,0,0,1,1,.29,1.16,1.16,0,0,1-.9,2h-.4v1.75H134v-4Zm-.29,1.86h.37c.53,0,.86-.26.86-.73,0-.64-.6-.7-.9-.7h-.33Z"/><path class="cls-2" d="M139.39,487h-1.72l-.49,1.13h-.49l1.86-4.23,1.81,4.23h-.5Zm-.18-.43-.68-1.62-.69,1.62Z"/><path class="cls-2" d="M141.62,488.09v-4.21l3.15,3.31v-3.14h.45v4.23L142.07,485v3.12Z"/><path class="cls-2" d="M147.82,486.36l-1.33-2.31H147l1,1.81,1-1.81h.52l-1.33,2.31v1.73h-.45Z"/><path class="cls-2" d="M339.12,291.41l.67-4.26,1.55,3.41,1.58-3.42.63,4.27h-.46l-.38-2.81-1.38,3-1.35-3-.4,2.81Z"/><path class="cls-2" d="M344.87,289.39a2.11,2.11,0,1,1,2.11,2.09A2.07,2.07,0,0,1,344.87,289.39Zm.46,0a1.65,1.65,0,1,0,1.65-1.66A1.66,1.66,0,0,0,345.33,289.39Z"/><path class="cls-2" d="M351.16,287.37a1.81,1.81,0,0,1,1,.22,1.05,1.05,0,0,1,.44.9,1.07,1.07,0,0,1-1,1.12l1.29,1.8h-.55l-1.23-1.77H351v1.77h-.45v-4Zm-.2,1.87h.28c.56,0,.89-.26.89-.74a.61.61,0,0,0-.32-.59,1.19,1.19,0,0,0-.58-.12H351Z"/><path class="cls-2" d="M356.25,287.79h-1.64V289h1.6v.43h-1.6V291h1.64v.42h-2.09v-4h2.09Z"/><path class="cls-2" d="M360.7,287.79v3.62h-.45v-3.62h-1v-.42h2.41v.42Z"/><path class="cls-2" d="M363.34,289h2.07v-1.64h.45v4h-.45v-2h-2.07v2h-.45v-4h.45Z"/><path class="cls-2" d="M369.74,290.27H368l-.49,1.14H367l1.85-4.23,1.82,4.23h-.5Zm-.18-.42-.68-1.62-.69,1.62Z"/><path class="cls-2" d="M371.88,291.41V287.2l3.15,3.3v-3.13h.45v4.22l-3.15-3.3v3.12Z"/><path class="cls-2" d="M331.51,313H330v1.11h1.48v.4H330v1.45h1.53v.4h-1.94v-3.75h1.94Z"/><path class="cls-2" d="M332.71,316.33l.62-4,1.44,3.16,1.46-3.16.59,4h-.43l-.35-2.61-1.28,2.76-1.26-2.76-.37,2.61Z"/><path class="cls-2" d="M338.92,312.58a1.37,1.37,0,0,1,.95.26,1.07,1.07,0,0,1,.34.81A1,1,0,0,1,339,314.7h-.36v1.63h-.42v-3.75Zm-.26,1.72H339c.5,0,.79-.24.79-.68,0-.59-.55-.65-.82-.65h-.31Z"/><path class="cls-2" d="M341.78,312.58v3.35h1v.4h-1.45v-3.75Z"/><path class="cls-2" d="M343.54,314.46a2,2,0,1,1,1.95,1.93A1.91,1.91,0,0,1,343.54,314.46Zm.43,0a1.52,1.52,0,1,0,1.52-1.55A1.53,1.53,0,0,0,344,314.46Z"/><path class="cls-2" d="M349.33,314.71l-1.23-2.13h.49l1,1.67,1-1.67H351l-1.24,2.13v1.62h-.42Z"/><path class="cls-2" d="M354,313H352.5v1.11H354v.4H352.5v1.45H354v.4h-1.94v-3.75H354Z"/><path class="cls-2" d="M357.29,313h-1.53v1.11h1.49v.4h-1.49v1.45h1.53v.4h-1.94v-3.75h1.94Z"/><path class="cls-2" d="M360.29,313.32a.85.85,0,0,0-.22-.28.65.65,0,0,0-.42-.13.58.58,0,0,0-.63.58.4.4,0,0,0,.14.33,1.23,1.23,0,0,0,.4.23l.36.16a1.65,1.65,0,0,1,.57.35.9.9,0,0,1,.27.68,1.12,1.12,0,0,1-1.18,1.15,1.14,1.14,0,0,1-.82-.3,1.4,1.4,0,0,1-.34-.66l.4-.12a.93.93,0,0,0,.22.48.7.7,0,0,0,.54.21.72.72,0,0,0,.76-.74.54.54,0,0,0-.19-.44,1.67,1.67,0,0,0-.45-.26l-.34-.16a1.61,1.61,0,0,1-.5-.3.8.8,0,0,1-.25-.62,1,1,0,0,1,1.05-1,1,1,0,0,1,.6.17,1.09,1.09,0,0,1,.36.41Z"/><path class="cls-2" d="M365.67,313h-1.3v1.11h1.25v.39h-1.25v1.86H364v-3.75h1.71Z"/><path class="cls-2" d="M367.56,312.58a1.66,1.66,0,0,1,.91.21,1,1,0,0,1,.41.83,1,1,0,0,1-.95,1l1.19,1.68h-.5l-1.14-1.64h-.11v1.64H367v-3.75Zm-.19,1.73h.27c.51,0,.82-.24.82-.68a.58.58,0,0,0-.29-.55,1,1,0,0,0-.54-.11h-.26Z"/><path class="cls-2" d="M370.14,314.46a1.95,1.95,0,1,1,1.94,1.93A1.91,1.91,0,0,1,370.14,314.46Zm.42,0a1.53,1.53,0,1,0,1.52-1.55A1.53,1.53,0,0,0,370.56,314.46Z"/><path class="cls-2" d="M375.23,316.33l.62-4,1.44,3.16,1.47-3.16.58,4h-.43l-.35-2.61-1.27,2.76L376,313.72l-.37,2.61Z"/><path class="cls-2" d="M384.36,312.73l-.86,1.19a1.14,1.14,0,0,1,.33-.05,1.18,1.18,0,0,1,1.21,1.24,1.29,1.29,0,0,1-2.58,0,1.48,1.48,0,0,1,.31-.86l1.27-1.77Zm.27,2.39a.86.86,0,0,0-.89-.87.85.85,0,0,0-.87.87.88.88,0,1,0,1.76,0Z"/><path class="cls-2" d="M386.77,313h-.63l.22-.39h.82v3.75h-.41Z"/><path class="cls-2" d="M337.71,323.31v-3.9l2.92,3.06v-2.9H341v3.91l-2.92-3.06v2.89Z"/><path class="cls-2" d="M344.64,322.26H343l-.45,1.05h-.46l1.73-3.92,1.68,3.92h-.46Zm-.16-.4-.63-1.5-.64,1.5Z"/><path class="cls-2" d="M347.3,320v3.35h-.42V320H346v-.39h2.24V320Z"/><path class="cls-2" d="M349.74,319.57v3.74h-.41v-3.74Z"/><path class="cls-2" d="M351.07,321.44a2,2,0,1,1,1.95,1.94A1.91,1.91,0,0,1,351.07,321.44Zm.43,0A1.52,1.52,0,1,0,353,319.9,1.53,1.53,0,0,0,351.5,321.44Z"/><path class="cls-2" d="M356.29,323.31v-3.9l2.92,3.06v-2.9h.42v3.91l-2.92-3.06v2.89Z"/><path class="cls-2" d="M363.22,322.26h-1.59l-.45,1.05h-.46l1.72-3.92,1.68,3.92h-.46Zm-.16-.4-.63-1.5-.64,1.5Z"/><path class="cls-2" d="M365.63,319.57v3.35h1v.39h-1.45v-3.74Z"/><path class="cls-2" d="M368.2,319.57v3.74h-.42v-3.74Z"/><path class="cls-2" d="M370.65,320v3.35h-.42V320h-.91v-.39h2.24V320Z"/><path class="cls-2" d="M373.1,319.57v3.74h-.42v-3.74Z"/><path class="cls-2" d="M376.57,320H375v1.11h1.48v.39H375v1.46h1.53v.39h-1.95v-3.74h1.95Z"/><path class="cls-2" d="M379.57,320.31a.88.88,0,0,0-.22-.28.67.67,0,0,0-.42-.13.58.58,0,0,0-.63.58.39.39,0,0,0,.14.32,1.21,1.21,0,0,0,.39.24l.36.15a1.89,1.89,0,0,1,.58.36.9.9,0,0,1,.27.68,1.21,1.21,0,0,1-2,.85,1.32,1.32,0,0,1-.35-.67l.4-.11a.87.87,0,0,0,.23.48.73.73,0,0,0,.54.21.71.71,0,0,0,.75-.75.56.56,0,0,0-.18-.43,1.84,1.84,0,0,0-.45-.26l-.34-.16a1.55,1.55,0,0,1-.5-.31.79.79,0,0,1-.26-.61,1,1,0,0,1,1.05-1,1,1,0,0,1,.6.17,1.25,1.25,0,0,1,.37.42Z"/><path class="cls-2" d="M342.07,295.9l-2.77,3.92a4.4,4.4,0,0,1,1.71-.33,4.22,4.22,0,0,1,4.34,4.35,4.44,4.44,0,0,1-8.87,0,4.48,4.48,0,0,1,.8-2.54l4.16-5.87Zm2.42,8a3.58,3.58,0,1,0-7.15,0,3.58,3.58,0,1,0,7.15,0Z"/><path class="cls-2" d="M347.3,306.83l.74.23-1.38,3.74-.49-.19Z"/><path class="cls-2" d="M356.79,296.93a8.33,8.33,0,0,1,0,9.79,3.59,3.59,0,0,1-5.88,0,8.33,8.33,0,0,1,0-9.79,3.6,3.6,0,0,1,5.88,0Zm-.62,9.3a7.88,7.88,0,0,0,0-8.82,2.78,2.78,0,0,0-4.64,0,7.88,7.88,0,0,0,0,8.82,2.74,2.74,0,0,0,4.64,0Z"/><path class="cls-2" d="M367.23,296.93a8.29,8.29,0,0,1,0,9.79,3.59,3.59,0,0,1-5.88,0,8.33,8.33,0,0,1,0-9.79,3.6,3.6,0,0,1,5.88,0Zm-.61,9.3a7.93,7.93,0,0,0,0-8.82,2.79,2.79,0,0,0-4.65,0,7.88,7.88,0,0,0,0,8.82,2.75,2.75,0,0,0,4.65,0Z"/><path class="cls-2" d="M377.68,296.93a8.33,8.33,0,0,1,0,9.79,3.59,3.59,0,0,1-5.88,0,8.33,8.33,0,0,1,0-9.79,3.6,3.6,0,0,1,5.88,0Zm-.62,9.3a7.88,7.88,0,0,0,0-8.82,2.78,2.78,0,0,0-4.64,0,7.88,7.88,0,0,0,0,8.82,2.74,2.74,0,0,0,4.64,0Z"/><ellipse class="cls-1" cx="129.91" cy="477.33" rx="31.47" ry="31.43"/><line class="cls-1" x1="93.17" y1="516.7" x2="109.08" y2="500.81"/></svg>