<svg id="Layer_1" data-name="Layer 1" xmlns="http://www.w3.org/2000/svg" viewBox="0 0 555 430.19233"><defs><style>.cls-1{fill:#76b900;}.cls-2{opacity:0.24;}.cls-3{fill:#fff;}.cls-4{fill:#333;}</style></defs><rect class="cls-1" x="10.1517" y="228.02686" width="534.6966" height="90.47159"/><rect class="cls-1" x="10.1517" y="181.87881" width="534.6966" height="35.04883"/><rect class="cls-1" x="10.1517" y="59.32767" width="534.6966" height="111.45192"/><rect class="cls-1" x="21.88639" y="71.04858" width="252.67782" height="40.3823"/><rect class="cls-2" x="21.88639" y="71.04858" width="252.67782" height="40.3823"/><rect class="cls-1" x="280.43579" y="71.04858" width="252.67782" height="40.3823"/><rect class="cls-2" x="280.43579" y="71.04858" width="252.67782" height="40.3823"/><rect class="cls-1" x="21.88639" y="118.49034" width="252.67782" height="40.3823"/><rect class="cls-2" x="21.88639" y="118.49034" width="252.67782" height="40.3823"/><rect class="cls-1" x="280.43579" y="118.49034" width="252.67782" height="40.3823"/><rect class="cls-2" x="280.43579" y="118.49034" width="252.67782" height="40.3823"/><path class="cls-3" d="M85.56543,97.56006V86.88037h6.82471v1.45508H87.18506v3.11963H91.625V92.895H87.18506v3.21h5.20508v1.45508Z"/><path class="cls-3" d="M99.06494,97.56006V92.92529a1.47618,1.47618,0,0,0-1.52978-1.69482,1.5143,1.5143,0,0,0-1.57471,1.69482v4.63477H94.43018V89.95557h1.5v.76464a2.72012,2.72012,0,0,1,2.0249-.855,2.6379,2.6379,0,0,1,1.875.68995,2.79362,2.79362,0,0,1,.76513,2.145v4.85986Z"/><path class="cls-3" d="M107.31494,97.56006V96.75a2.339,2.339,0,0,1-2.00976.8999,2.631,2.631,0,0,1-1.85987-.6748,4.57051,4.57051,0,0,1-.855-3.2251,4.52956,4.52956,0,0,1,.855-3.20947,2.59146,2.59146,0,0,1,1.84473-.6753,2.35457,2.35457,0,0,1,1.99512.855V86.88037h1.52978V97.56006Zm-1.605-6.32959c-1.37988,0-1.58984,1.16992-1.58984,2.51953,0,1.3501.21,2.53516,1.58984,2.53516,1.38037,0,1.5752-1.18506,1.5752-2.53516C107.28516,92.40039,107.09033,91.23047,105.71,91.23047Z"/><path class="cls-3" d="M116.33008,96.75a3.07745,3.07745,0,0,1-2.27979.8999,3.041,3.041,0,0,1-2.26513-.8999,5.42522,5.42522,0,0,1,0-5.98486,3.04283,3.04283,0,0,1,2.26513-.89991,3.0793,3.0793,0,0,1,2.27979.89991,5.42527,5.42527,0,0,1,0,5.98486Zm-1.15479-5.08447a1.55038,1.55038,0,0,0-1.125-.43506,1.5152,1.5152,0,0,0-1.11035.43506,4.40232,4.40232,0,0,0,0,4.16943,1.52669,1.52669,0,0,0,1.11035.4502,1.56179,1.56179,0,0,0,1.125-.4502,4.40225,4.40225,0,0,0,0-4.16943Z"/><path class="cls-3" d="M121.75977,97.6499a4.18418,4.18418,0,0,1-3.19483-1.09472l1.00488-1.00489a2.95305,2.95305,0,0,0,2.18995.79492c.93017,0,1.665-.33007,1.665-1.05029,0-.50976-.28515-.83984-1.02-.8999l-1.21485-.105c-1.4248-.11963-2.25-.76465-2.25-2.09961,0-1.48486,1.2749-2.3252,2.86475-2.3252a4.16965,4.16965,0,0,1,2.81982.855l-.96.9751a2.87307,2.87307,0,0,0-1.87451-.55517c-.915,0-1.38037.40527-1.38037.97509,0,.4502.24023.79493,1.05029.87012l1.19971.105c1.4248.12012,2.26513.79492,2.26513,2.145C124.9248,96.8252,123.57471,97.6499,121.75977,97.6499Z"/><path class="cls-3" d="M129.78467,97.6499c-1.71,0-3.38965-1.0498-3.38965-3.8999,0-2.84961,1.67969-3.88477,3.38965-3.88477a3.12134,3.12134,0,0,1,2.50488,1.06495l-1.0498,1.02a1.77039,1.77039,0,0,0-1.45508-.71973,1.71491,1.71491,0,0,0-1.41016.6748A2.81615,2.81615,0,0,0,127.9248,93.75a2.8652,2.8652,0,0,0,.44971,1.86035,1.71626,1.71626,0,0,0,1.41016.67481,1.76962,1.76962,0,0,0,1.45508-.72022l1.0498,1.00537A3.13387,3.13387,0,0,1,129.78467,97.6499Z"/><path class="cls-3" d="M138.87451,96.75a3.07744,3.07744,0,0,1-2.27978.8999,3.041,3.041,0,0,1-2.26514-.8999,5.42527,5.42527,0,0,1,0-5.98486,3.04285,3.04285,0,0,1,2.26514-.89991,3.07929,3.07929,0,0,1,2.27978.89991,5.42527,5.42527,0,0,1,0,5.98486Zm-1.15478-5.08447a1.55041,1.55041,0,0,0-1.125-.43506,1.51517,1.51517,0,0,0-1.11035.43506,4.40225,4.40225,0,0,0,0,4.16943,1.52665,1.52665,0,0,0,1.11035.4502,1.56183,1.56183,0,0,0,1.125-.4502,4.40232,4.40232,0,0,0,0-4.16943Z"/><path class="cls-3" d="M147.21436,96.9751a2.59458,2.59458,0,0,1-1.84522.6748,2.36543,2.36543,0,0,1-1.99463-.86963v3.8545h-1.53027V89.95557h1.5v.80957a2.33955,2.33955,0,0,1,2.00976-.89991,2.6312,2.6312,0,0,1,1.86036.6753,4.53171,4.53171,0,0,1,.85449,3.20947A4.57269,4.57269,0,0,1,147.21436,96.9751Zm-2.25-5.74463c-1.37989,0-1.58985,1.16992-1.58985,2.51953,0,1.3501.21,2.53516,1.58985,2.53516s1.5747-1.18506,1.5747-2.53516C146.53906,92.40039,146.34424,91.23047,144.96436,91.23047Z"/><path class="cls-3" d="M152.52393,99.0752a2.45936,2.45936,0,0,1-.55469.94482,2.11093,2.11093,0,0,1-1.56006.55469h-.61475V99.19482h.38965c.645,0,.87012-.19482,1.09522-.80957l.41992-1.18505-2.65479-7.24463h1.61963l1.81494,5.35449,1.77-5.35449h1.63526Z"/><path class="cls-3" d="M166.8335,97.56006l-2.25-4.5h-2.02491v4.5H160.939V86.88037h4.13965a3.05516,3.05516,0,0,1,3.31494,3.12012,2.80507,2.80507,0,0,1-2.12988,2.835l2.46,4.72461Zm-1.875-9.22461h-2.39991v3.34473h2.39991a1.678,1.678,0,1,0,0-3.34473Z"/><path class="cls-3" d="M171.709,94.2002a1.8704,1.8704,0,0,0,1.93506,2.12988,2.27087,2.27087,0,0,0,1.84473-.77979l.9751.915a3.56965,3.56965,0,0,1-2.8501,1.18457c-1.90479,0-3.41943-1.00488-3.41943-3.8999,0-2.45947,1.2749-3.88477,3.22461-3.88477,2.04,0,3.22509,1.5,3.22509,3.66016v.67481Zm3.21-2.1001a1.5677,1.5677,0,0,0-1.5-.96,1.58942,1.58942,0,0,0-1.51514.96,2.41159,2.41159,0,0,0-.19483,1.03515h3.41993A2.4057,2.4057,0,0,0,174.919,92.1001Z"/><path class="cls-3" d="M180.439,91.26025v6.29981h-1.52978V91.26025h-.87012V90.09033h.87012V88.92041a1.97928,1.97928,0,0,1,2.085-2.11475h.96v1.30469h-.67529a.77308.77308,0,0,0-.83985.88526v1.09472h1.51514v1.16992Z"/><path class="cls-3" d="M193.50342,97.56006l-.73487-2.145h-4.21484l-.73535,2.145h-1.72461l3.91455-10.67969h1.30518L195.228,97.56006Zm-2.80518-8.26465-1.66455,4.73975h3.28467Z"/><path class="cls-3" d="M201.93359,96.9751a2.59455,2.59455,0,0,1-1.84521.6748,2.36543,2.36543,0,0,1-1.99463-.86963v3.8545h-1.53027V89.95557h1.5v.80957a2.33955,2.33955,0,0,1,2.00976-.89991,2.63118,2.63118,0,0,1,1.86035.6753,4.53188,4.53188,0,0,1,.855,3.20947A4.57286,4.57286,0,0,1,201.93359,96.9751Zm-2.25-5.74463c-1.37988,0-1.58984,1.16992-1.58984,2.51953,0,1.3501.21,2.53516,1.58984,2.53516S201.2583,95.1001,201.2583,93.75C201.2583,92.40039,201.06348,91.23047,199.68359,91.23047Z"/><path class="cls-3" d="M210.22852,96.9751a2.59458,2.59458,0,0,1-1.84522.6748,2.36543,2.36543,0,0,1-1.99463-.86963v3.8545H204.8584V89.95557h1.5v.80957a2.33955,2.33955,0,0,1,2.00976-.89991,2.6312,2.6312,0,0,1,1.86036.6753,4.53192,4.53192,0,0,1,.855,3.20947A4.57291,4.57291,0,0,1,210.22852,96.9751Zm-2.25-5.74463c-1.37989,0-1.58985,1.16992-1.58985,2.51953,0,1.3501.21,2.53516,1.58985,2.53516s1.5747-1.18506,1.5747-2.53516C209.55322,92.40039,209.3584,91.23047,207.97852,91.23047Z"/><path class="cls-3" d="M345.41064,97.6499a3.62063,3.62063,0,0,1-3.8247-3.68994V86.88037h1.62011v7.00488a2.21447,2.21447,0,1,0,4.42481,0V86.88037h1.61963V93.96A3.63316,3.63316,0,0,1,345.41064,97.6499Z"/><path class="cls-3" d="M353.73584,97.56006a1.93816,1.93816,0,0,1-2.085-2.1001V86.88037h1.52978v8.48975c0,.585.21.88476.8252.88476h.6748v1.30518Z"/><path class="cls-3" d="M358.62549,97.56006a1.97928,1.97928,0,0,1-2.085-2.11475V91.26025h-.87012V90.09033h.87012V87.78027h1.52978v2.31006h1.47022v1.16992h-1.47022v4.10987a.77271.77271,0,0,0,.83985.88476h.63037v1.30518Z"/><path class="cls-3" d="M365.67529,91.74023a1.41237,1.41237,0,0,0-1.14013-.50976,1.5647,1.5647,0,0,0-1.51465,1.71v4.61963h-1.53028V89.95557h1.5v.8247a2.526,2.526,0,0,1,2.02491-.915,2.35407,2.35407,0,0,1,1.81494.72022Z"/><path class="cls-3" d="M372.02,97.56006v-.68994a2.5,2.5,0,0,1-2.0249.77978,2.68331,2.68331,0,0,1-2.03955-.68994,2.33219,2.33219,0,0,1-.6001-1.63476c0-1.27491.88476-2.18995,2.625-2.18995h2.00976v-.54c0-.96-.48-1.4248-1.665-1.4248a1.782,1.782,0,0,0-1.665.73486l-1.00489-.94482a3.11851,3.11851,0,0,1,2.73-1.09522c2.085,0,3.13477.88526,3.13477,2.60987v5.085Zm-.02979-3.35986h-1.78515c-.8999,0-1.36475.40478-1.36475,1.09472,0,.69043.43506,1.08008,1.395,1.08008a1.81607,1.81607,0,0,0,1.42481-.43506,1.52786,1.52786,0,0,0,.33007-1.125Z"/><path class="cls-3" d="M378.33545,97.6499a4.1842,4.1842,0,0,1-3.19483-1.09472l1.00489-1.00489a2.953,2.953,0,0,0,2.18994.79492c.93017,0,1.665-.33007,1.665-1.05029,0-.50976-.28516-.83984-1.02-.8999l-1.21485-.105c-1.42529-.11963-2.25-.76465-2.25-2.09961,0-1.48486,1.27491-2.3252,2.86475-2.3252a4.16966,4.16966,0,0,1,2.81983.855l-.96.9751a2.87307,2.87307,0,0,0-1.87451-.55517c-.915,0-1.38037.40527-1.38037.97509,0,.4502.24024.79493,1.05029.87012l1.19971.105c1.42529.12012,2.26514.79492,2.26514,2.145C381.50049,96.8252,380.15039,97.6499,378.33545,97.6499Z"/><path class="cls-3" d="M388.44531,96.75a3.07741,3.07741,0,0,1-2.27978.8999,3.041,3.041,0,0,1-2.26514-.8999,5.42527,5.42527,0,0,1,0-5.98486,3.04285,3.04285,0,0,1,2.26514-.89991,3.07926,3.07926,0,0,1,2.27978.89991,5.42527,5.42527,0,0,1,0,5.98486Zm-1.15478-5.08447a1.55041,1.55041,0,0,0-1.125-.43506,1.51517,1.51517,0,0,0-1.11035.43506,4.40225,4.40225,0,0,0,0,4.16943,1.52665,1.52665,0,0,0,1.11035.4502,1.56183,1.56183,0,0,0,1.125-.4502,4.40232,4.40232,0,0,0,0-4.16943Z"/><path class="cls-3" d="M396.00488,97.56006v-.76514a2.71831,2.71831,0,0,1-2.0249.855,2.63789,2.63789,0,0,1-1.875-.68994,2.79264,2.79264,0,0,1-.76465-2.145V89.95557h1.52979v4.63476a1.47643,1.47643,0,0,0,1.52978,1.69483,1.51465,1.51465,0,0,0,1.5752-1.69483V89.95557h1.52978v7.60449Z"/><path class="cls-3" d="M404.56982,97.56006V92.92529A1.47618,1.47618,0,0,0,403.04,91.23047a1.5143,1.5143,0,0,0-1.57471,1.69482v4.63477h-1.53027V89.95557h1.5v.76464a2.72012,2.72012,0,0,1,2.0249-.855,2.63786,2.63786,0,0,1,1.875.68995,2.79363,2.79363,0,0,1,.76514,2.145v4.85986Z"/><path class="cls-3" d="M412.81982,97.56006V96.75a2.339,2.339,0,0,1-2.00976.8999,2.631,2.631,0,0,1-1.85986-.6748,4.57047,4.57047,0,0,1-.855-3.2251,4.52951,4.52951,0,0,1,.855-3.20947,2.59143,2.59143,0,0,1,1.84472-.6753,2.35457,2.35457,0,0,1,1.99512.855V86.88037h1.52978V97.56006Zm-1.605-6.32959c-1.37988,0-1.58984,1.16992-1.58984,2.51953,0,1.3501.21,2.53516,1.58984,2.53516,1.38037,0,1.5752-1.18506,1.5752-2.53516C412.79,92.40039,412.59521,91.23047,411.21484,91.23047Z"/><path class="cls-3" d="M426.42432,97.56006l-2.25-4.5h-2.02491v4.5h-1.61962V86.88037h4.13964a3.05517,3.05517,0,0,1,3.315,3.12012,2.80508,2.80508,0,0,1-2.12989,2.835l2.46,4.72461Zm-1.875-9.22461h-2.39991v3.34473h2.39991a1.678,1.678,0,1,0,0-3.34473Z"/><path class="cls-3" d="M431.2998,94.2002a1.8704,1.8704,0,0,0,1.93506,2.12988,2.27087,2.27087,0,0,0,1.84473-.77979l.9751.915a3.56965,3.56965,0,0,1-2.8501,1.18457c-1.90479,0-3.41943-1.00488-3.41943-3.8999,0-2.45947,1.2749-3.88477,3.22461-3.88477,2.04,0,3.22509,1.5,3.22509,3.66016v.67481Zm3.21-2.1001a1.5677,1.5677,0,0,0-1.5-.96,1.58942,1.58942,0,0,0-1.51514.96,2.41159,2.41159,0,0,0-.19483,1.03515h3.41993A2.4057,2.4057,0,0,0,434.50977,92.1001Z"/><path class="cls-3" d="M440.0293,91.26025v6.29981h-1.52979V91.26025h-.87012V90.09033h.87012V88.92041a1.97928,1.97928,0,0,1,2.085-2.11475h.96v1.30469h-.67529a.77308.77308,0,0,0-.83984.88526v1.09472h1.51513v1.16992Z"/><path class="cls-3" d="M453.09424,97.56006l-.73486-2.145h-4.21485l-.73535,2.145h-1.72461l3.91455-10.67969h1.30518l3.91455,10.67969Zm-2.80518-8.26465-1.66455,4.73975h3.28467Z"/><path class="cls-3" d="M461.52441,96.9751a2.59455,2.59455,0,0,1-1.84521.6748,2.36543,2.36543,0,0,1-1.99463-.86963v3.8545H456.1543V89.95557h1.5v.80957a2.33955,2.33955,0,0,1,2.00976-.89991,2.63118,2.63118,0,0,1,1.86035.6753,4.53188,4.53188,0,0,1,.855,3.20947A4.57286,4.57286,0,0,1,461.52441,96.9751Zm-2.25-5.74463c-1.37988,0-1.58984,1.16992-1.58984,2.51953,0,1.3501.21,2.53516,1.58984,2.53516s1.57471-1.18506,1.57471-2.53516C460.84912,92.40039,460.6543,91.23047,459.27441,91.23047Z"/><path class="cls-3" d="M469.81934,96.9751a2.59458,2.59458,0,0,1-1.84522.6748,2.36543,2.36543,0,0,1-1.99463-.86963v3.8545h-1.53027V89.95557h1.5v.80957a2.33955,2.33955,0,0,1,2.00976-.89991,2.6312,2.6312,0,0,1,1.86036.6753,4.53192,4.53192,0,0,1,.855,3.20947A4.57291,4.57291,0,0,1,469.81934,96.9751Zm-2.25-5.74463c-1.37989,0-1.58985,1.16992-1.58985,2.51953,0,1.3501.21,2.53516,1.58985,2.53516S469.144,95.1001,469.144,93.75C469.144,92.40039,468.94922,91.23047,467.56934,91.23047Z"/><path class="cls-3" d="M114.0752,142.60156a3.81316,3.81316,0,0,1-2.75977,1.00489h-3.75V132.92676h3.75a3.8132,3.8132,0,0,1,2.75977,1.00488c1.15478,1.15527,1.08007,2.71533,1.08007,4.26025S115.23,141.44678,114.0752,142.60156Zm-1.10987-7.5a2.31149,2.31149,0,0,0-1.81494-.71972h-1.96533v7.76953h1.96533a2.31149,2.31149,0,0,0,1.81494-.71973c.55469-.61523.56983-1.77.56983-3.23975C113.53516,136.72168,113.52,135.7168,112.96533,135.10156Z"/><path class="cls-3" d="M118.5,140.24658a1.8704,1.8704,0,0,0,1.93506,2.12988,2.27086,2.27086,0,0,0,1.84473-.77978l.97509.915a3.56964,3.56964,0,0,1-2.85009,1.18457c-1.90479,0-3.41944-1.00488-3.41944-3.8999,0-2.45948,1.2749-3.88477,3.22461-3.88477,2.04,0,3.2251,1.5,3.2251,3.66016v.6748Zm3.21-2.1001a1.56769,1.56769,0,0,0-1.5-.96,1.58944,1.58944,0,0,0-1.51514.96,2.41167,2.41167,0,0,0-.19482,1.03516h3.41992A2.40563,2.40563,0,0,0,121.71,138.14648Z"/><path class="cls-3" d="M126.585,140.24658a1.8704,1.8704,0,0,0,1.93506,2.12988,2.27086,2.27086,0,0,0,1.84473-.77978l.97509.915a3.56964,3.56964,0,0,1-2.85009,1.18457c-1.90479,0-3.41944-1.00488-3.41944-3.8999,0-2.45948,1.2749-3.88477,3.22461-3.88477,2.04,0,3.2251,1.5,3.2251,3.66016v.6748Zm3.21-2.1001a1.56769,1.56769,0,0,0-1.5-.96,1.58943,1.58943,0,0,0-1.51513.96,2.41151,2.41151,0,0,0-.19483,1.03516h3.41992A2.40563,2.40563,0,0,0,129.79492,138.14648Z"/><path class="cls-3" d="M138.91455,143.02148a2.59453,2.59453,0,0,1-1.84521.67481,2.36541,2.36541,0,0,1-1.99463-.86963v3.85449h-1.53028V136.002h1.5v.80957a2.33956,2.33956,0,0,1,2.00977-.8999,2.63117,2.63117,0,0,1,1.86035.67529,6.484,6.484,0,0,1,0,6.43457Zm-2.25-5.74462c-1.37988,0-1.58984,1.16992-1.58984,2.51953,0,1.35009.21,2.53515,1.58984,2.53515s1.57471-1.18506,1.57471-2.53515C138.23926,138.44678,138.04443,137.27686,136.66455,137.27686Z"/><path class="cls-3" d="M144.85449,143.69629a4.83561,4.83561,0,0,1-3.77978-1.40967l1.07959-1.06494a3.52575,3.52575,0,0,0,2.73,1.02c1.395,0,2.20508-.6001,2.20508-1.63525a1.43756,1.43756,0,0,0-.41993-1.10987,1.85726,1.85726,0,0,0-1.16992-.45019l-1.26025-.17969a3.65679,3.65679,0,0,1-2.0249-.855,2.65693,2.65693,0,0,1-.77979-2.04c0-1.85986,1.3501-3.13477,3.56982-3.13477a4.44765,4.44765,0,0,1,3.315,1.21485l-1.03516,1.02a3.136,3.136,0,0,0-2.32471-.8252c-1.26025,0-1.95019.72022-1.95019,1.665a1.26983,1.26983,0,0,0,.40527.99024,2.38345,2.38345,0,0,0,1.19971.49462l1.21484.18018a3.53485,3.53485,0,0,1,1.99512.79492,2.7943,2.7943,0,0,1,.87012,2.18994C148.69434,142.52637,147.08936,143.69629,144.85449,143.69629Z"/><path class="cls-3" d="M152.95459,143.60645a1.97928,1.97928,0,0,1-2.085-2.11475v-4.18506h-.87012v-1.16992h.87012v-2.31006h1.52978v2.31006h1.47022v1.16992h-1.47022v4.10986a.77272.77272,0,0,0,.83985.88477h.63037v1.30518Z"/><path class="cls-3" d="M160.00439,137.78662a1.41234,1.41234,0,0,0-1.14013-.50976,1.56469,1.56469,0,0,0-1.51465,1.71v4.61963h-1.53027V136.002h1.5v.82471a2.526,2.526,0,0,1,2.0249-.915,2.354,2.354,0,0,1,1.81494.72022Z"/><path class="cls-3" d="M163.06445,140.24658a1.8704,1.8704,0,0,0,1.93506,2.12988,2.27086,2.27086,0,0,0,1.84473-.77978l.9751.915a3.56968,3.56968,0,0,1-2.8501,1.18457c-1.90479,0-3.41944-1.00488-3.41944-3.8999,0-2.45948,1.27491-3.88477,3.22461-3.88477,2.04,0,3.2251,1.5,3.2251,3.66016v.6748Zm3.21-2.1001a1.56769,1.56769,0,0,0-1.5-.96,1.58943,1.58943,0,0,0-1.51513.96,2.41166,2.41166,0,0,0-.19483,1.03516h3.41993A2.40562,2.40562,0,0,0,166.27441,138.14648Z"/><path class="cls-3" d="M174.11914,143.60645v-.68995a2.49993,2.49993,0,0,1-2.0249.77979,2.68331,2.68331,0,0,1-2.03955-.68994,2.33221,2.33221,0,0,1-.6001-1.63477c0-1.2749.88477-2.18994,2.625-2.18994h2.00977v-.54c0-.96-.48-1.4248-1.665-1.4248a1.782,1.782,0,0,0-1.665.73486l-1.00489-.94482a3.11849,3.11849,0,0,1,2.73-1.09522c2.085,0,3.13476.88526,3.13476,2.60986v5.085Zm-.02978-3.35987H172.3042c-.8999,0-1.36475.40479-1.36475,1.09473,0,.69043.43506,1.08008,1.395,1.08008a1.81611,1.81611,0,0,0,1.42481-.43506,1.52782,1.52782,0,0,0,.33008-1.125Z"/><path class="cls-3" d="M187.24365,143.60645v-4.63477a1.47618,1.47618,0,0,0-1.52978-1.69482,1.50577,1.50577,0,0,0-1.57471,1.61962v4.71h-1.53027v-4.63477a1.47619,1.47619,0,0,0-1.52979-1.69482,1.5143,1.5143,0,0,0-1.57471,1.69482v4.63477h-1.53027V136.002h1.5v.76465a2.75368,2.75368,0,0,1,2.0249-.855,2.43131,2.43131,0,0,1,2.16016,1.10986,2.89014,2.89014,0,0,1,2.38477-1.10986,2.75226,2.75226,0,0,1,1.91992.68994,2.82571,2.82571,0,0,1,.81006,2.145v4.85987Z"/><path class="cls-3" d="M381.459,143.60645l-2.249-4.5h-2.02539v4.5h-1.62012V132.92676h4.13965a3.05531,3.05531,0,0,1,3.31543,3.12012,2.80459,2.80459,0,0,1-2.12988,2.835l2.46,4.72461Zm-1.875-9.22461h-2.39941v3.34472H379.584a1.678,1.678,0,1,0,0-3.34472Z"/><path class="cls-3" d="M385.165,134.502v-1.62011h1.62012V134.502Zm.04492,9.1045V136.002h1.53027v7.6045Z"/><path class="cls-3" d="M392.10938,143.60645h-1.24512l-2.79-7.6045h1.62012l1.7998,5.3545,1.78516-5.3545h1.62011Z"/><path class="cls-3" d="M397.209,140.24658a1.87074,1.87074,0,0,0,1.93555,2.12988,2.27151,2.27151,0,0,0,1.84473-.77978l.97461.915a3.568,3.568,0,0,1-2.84961,1.18457c-1.90528,0-3.41992-1.00488-3.41992-3.8999,0-2.45948,1.27539-3.88477,3.22461-3.88477,2.04,0,3.22558,1.5,3.22558,3.66016v.6748Zm3.21-2.1001a1.56724,1.56724,0,0,0-1.5-.96,1.58874,1.58874,0,0,0-1.51465.96,2.41145,2.41145,0,0,0-.19532,1.03516h3.41993A2.39144,2.39144,0,0,0,400.419,138.14648Z"/><path class="cls-3" d="M408.35449,137.78662a1.41331,1.41331,0,0,0-1.14062-.50976,1.565,1.565,0,0,0-1.51465,1.71v4.61963H404.169V136.002h1.5v.82471a2.527,2.527,0,0,1,2.02539-.915,2.353,2.353,0,0,1,1.81445.72022Z"/><path class="cls-3" d="M420.02344,143.60645v-4.63477a1.47608,1.47608,0,0,0-1.5293-1.69482,1.50588,1.50588,0,0,0-1.57519,1.61962v4.71h-1.53028v-4.63477a1.47608,1.47608,0,0,0-1.52929-1.69482,1.51441,1.51441,0,0,0-1.5752,1.69482v4.63477h-1.53027V136.002h1.5v.76465a2.75474,2.75474,0,0,1,2.02539-.855,2.43242,2.43242,0,0,1,2.16015,1.10986,2.88951,2.88951,0,0,1,2.38477-1.10986,2.75309,2.75309,0,0,1,1.91992.68994,2.82534,2.82534,0,0,1,.80957,2.145v4.85987Z"/><path class="cls-3" d="M428.00391,143.60645v-.68995a2.501,2.501,0,0,1-2.02539.77979,2.68288,2.68288,0,0,1-2.03907-.68994,2.33038,2.33038,0,0,1-.60058-1.63477c0-1.2749.88476-2.18994,2.625-2.18994h2.00976v-.54c0-.96-.47949-1.4248-1.665-1.4248a1.78252,1.78252,0,0,0-1.665.73486l-1.00488-.94482a3.12,3.12,0,0,1,2.73047-1.09522c2.085,0,3.13477.88526,3.13477,2.60986v5.085Zm-.03028-3.35987h-1.78515c-.89942,0-1.36426.40479-1.36426,1.09473,0,.69043.43457,1.08008,1.39453,1.08008a1.8155,1.8155,0,0,0,1.4248-.43506,1.52569,1.52569,0,0,0,.33008-1.125Z"/><path class="cls-3" d="M436.01367,143.60645l-1.58984-2.59473-1.60449,2.59473h-1.84473l2.60937-3.88477L431.0791,136.002h1.84473l1.5,2.47461,1.48535-2.47461h1.84473l-2.49024,3.71973,2.59571,3.88477Z"/><path class="cls-3" d="M255.43506,205.26855a3.86782,3.86782,0,0,1-2.80469-1.13964c-1.05029-1.04981-1.03516-2.23438-1.03516-4.29,0-2.05469-.01513-3.23975,1.03516-4.28955a3.86819,3.86819,0,0,1,2.80469-1.14014,3.67689,3.67689,0,0,1,3.81006,3.28467h-1.64991a2.20789,2.20789,0,0,0-3.73486-1.18457c-.5249.56982-.645,1.18457-.645,3.32959,0,2.14551.12012,2.75976.645,3.33008a2.13292,2.13292,0,0,0,1.57471.6455,2.15661,2.15661,0,0,0,2.1748-1.83007h1.63526A3.68628,3.68628,0,0,1,255.43506,205.26855Z"/><path class="cls-3" d="M265.06494,205.26855a3.62025,3.62025,0,0,1-3.82471-3.68945V194.499h1.62012v7.00489a2.21449,2.21449,0,1,0,4.42481,0V194.499h1.61963v7.08008A3.63277,3.63277,0,0,1,265.06494,205.26855Z"/><path class="cls-3" d="M278.04,204.17383a3.81317,3.81317,0,0,1-2.75977,1.00488h-3.75V194.499h3.75a3.81313,3.81313,0,0,1,2.75977,1.00489c1.15478,1.15527,1.08008,2.71533,1.08008,4.26025C279.12012,201.30957,279.19482,203.01953,278.04,204.17383Zm-1.10986-7.5a2.31153,2.31153,0,0,0-1.815-.71973H273.1499v7.76953h1.96533a2.30991,2.30991,0,0,0,1.815-.71972c.55468-.61524.56982-1.76953.56982-3.23975S277.48486,197.28906,276.93018,196.67383Z"/><path class="cls-3" d="M287.50488,205.17871l-.73486-2.14453h-4.21484l-.73536,2.14453h-1.72461l3.91456-10.67969h1.30517l3.91455,10.67969Zm-2.80517-8.26465-1.66455,4.74024h3.28466Z"/><path class="cls-3" d="M290.355,201.72949v-1.42578h4.37988v1.42578Z"/><path class="cls-3" d="M302.38428,205.17871l-2.32471-4.09473-2.31006,4.09473h-1.85986l3.2998-5.47461-3.08984-5.20508h1.85986l2.1001,3.8252,2.11475-3.8252h1.85986l-3.08984,5.20508,3.31494,5.47461Z"/><path class="cls-3" d="M216.77344,253.29492l-4.93506-7.51465v7.51465h-1.61963V242.61523h1.48486l4.93457,7.5v-7.5h1.62012v10.67969Z"/><path class="cls-3" d="M224.49805,253.29492h-1.25977l-3.50976-10.67969h1.67968l2.46,7.77051,2.46-7.77051h1.71Z"/><path class="cls-3" d="M229.5083,253.29492V242.61523h1.61963v10.67969Z"/><path class="cls-3" d="M240.42822,252.29a3.81316,3.81316,0,0,1-2.75976,1.00488h-3.75V242.61523h3.75a3.81312,3.81312,0,0,1,2.75976,1.00489c1.15479,1.15527,1.08008,2.71582,1.08008,4.26074S241.583,251.13574,240.42822,252.29Zm-1.10986-7.5a2.31315,2.31315,0,0,0-1.81494-.71973h-1.96533v7.76953h1.96533a2.30989,2.30989,0,0,0,1.81494-.71972c.55469-.61524.56982-1.76953.56982-3.23926C239.88818,246.41016,239.87305,245.40527,239.31836,244.79Z"/><path class="cls-3" d="M243.9082,253.29492V242.61523h1.61963v10.67969Z"/><path class="cls-3" d="M254.45264,253.29492l-.73487-2.14453h-4.21484l-.73535,2.14453H247.043l3.91455-10.67969h1.30518l3.91455,10.67969Zm-2.80518-8.26465-1.66455,4.74024h3.28467Z"/><path class="cls-3" d="M261.293,253.29492V242.61523h6.82471v1.45508H262.9126v3.12012h4.43994v1.43945H262.9126v3.21h5.20508v1.45508Z"/><path class="cls-3" d="M276.84766,252.29a3.8132,3.8132,0,0,1-2.75977,1.00488h-3.75V242.61523h3.75a3.81316,3.81316,0,0,1,2.75977,1.00489c1.15478,1.15527,1.08007,2.71582,1.08007,4.26074S278.00244,251.13574,276.84766,252.29Zm-1.10987-7.5a2.31314,2.31314,0,0,0-1.81494-.71973h-1.96533v7.76953h1.96533a2.30988,2.30988,0,0,0,1.81494-.71972c.55469-.61524.56983-1.76953.56983-3.23926C276.30762,246.41016,276.29248,245.40527,275.73779,244.79Z"/><path class="cls-3" d="M286.71729,252.16992a4.09359,4.09359,0,0,1-5.74463.0752c-1.0503-1.04981-1.03516-2.23438-1.03516-4.29,0-2.05469-.01514-3.23926,1.03516-4.28906a3.81974,3.81974,0,0,1,2.80468-1.14063,3.75434,3.75434,0,0,1,3.88477,3.31543h-1.63477a2.18135,2.18135,0,0,0-2.25-1.86035,2.144,2.144,0,0,0-1.5747.66015c-.52491.57032-.645,1.16993-.645,3.31446,0,2.14551.12011,2.75976.645,3.33008a2.13289,2.13289,0,0,0,1.5747.6455,2.26657,2.26657,0,0,0,1.74024-.75,2.41546,2.41546,0,0,0,.53955-1.68066v-.59961h-2.27979v-1.37988h3.89991v1.63476A3.99844,3.99844,0,0,1,286.71729,252.16992Z"/><path class="cls-3" d="M290.0625,253.29492V242.61523h6.82471v1.45508h-5.20508v3.12012h4.43994v1.43945h-4.43994v3.21h5.20508v1.45508Z"/><path class="cls-3" d="M305.542,253.38477a4.837,4.837,0,0,1-3.77978-1.40918l1.07959-1.06543a3.52437,3.52437,0,0,0,2.73,1.0205c1.395,0,2.20508-.60058,2.20508-1.63574a1.43644,1.43644,0,0,0-.41993-1.10937,1.8545,1.8545,0,0,0-1.16992-.4502l-1.26025-.17969a3.65355,3.65355,0,0,1-2.0249-.85546,2.65694,2.65694,0,0,1-.77979-2.04c0-1.85938,1.3501-3.13477,3.56982-3.13477a4.44956,4.44956,0,0,1,3.315,1.21484l-1.03516,1.02051a3.136,3.136,0,0,0-2.32471-.82519c-1.26025,0-1.95019.71972-1.95019,1.665a1.2705,1.2705,0,0,0,.40527.99023,2.38325,2.38325,0,0,0,1.19971.49414l1.21484.18066a3.528,3.528,0,0,1,1.99512.79493,2.79251,2.79251,0,0,1,.87012,2.18945C309.38184,252.21484,307.77686,253.38477,305.542,253.38477Z"/><path class="cls-3" d="M315.17188,244.07031v9.22461h-1.62012v-9.22461H310.6123v-1.45508h7.49952v1.45508Z"/><path class="cls-3" d="M325.19189,253.29492l-.73486-2.14453h-4.21484l-.73535,2.14453h-1.72461l3.91455-10.67969H323.002l3.91455,10.67969Zm-2.80517-8.26465-1.66455,4.74024h3.28467Z"/><path class="cls-3" d="M331.73193,253.38477a3.8678,3.8678,0,0,1-2.80468-1.13965c-1.0503-1.04981-1.03516-2.23438-1.03516-4.29,0-2.05469-.01514-3.23926,1.03516-4.28906a3.86858,3.86858,0,0,1,2.80468-1.14063,3.6773,3.6773,0,0,1,3.81006,3.28516h-1.6499a2.20744,2.20744,0,0,0-3.73486-1.18457c-.52491.56933-.645,1.18457-.645,3.3291,0,2.14551.12011,2.75976.645,3.33008a2.13289,2.13289,0,0,0,1.5747.6455,2.15662,2.15662,0,0,0,2.17481-1.83007H335.542A3.68629,3.68629,0,0,1,331.73193,253.38477Z"/><path class="cls-3" d="M344.12158,253.29492l-2.99951-5.26465-1.80029,2.16016v3.10449h-1.61963V242.61523h1.61963v5.37012l4.36523-5.37012h1.97949l-3.46484,4.18555,3.8252,6.49414Z"/><rect class="cls-1" x="21.88639" y="266.2092" width="122.89998" height="40.3823"/><rect class="cls-2" x="21.88639" y="266.2092" width="122.89998" height="40.3823"/><rect class="cls-1" x="151.3288" y="266.2092" width="122.89998" height="40.3823"/><rect class="cls-2" x="151.3288" y="266.2092" width="122.89998" height="40.3823"/><rect class="cls-1" x="280.77122" y="266.2092" width="122.89998" height="40.3823"/><rect class="cls-2" x="280.77122" y="266.2092" width="122.89998" height="40.3823"/><rect class="cls-1" x="410.21363" y="266.2092" width="122.89998" height="40.3823"/><rect class="cls-2" x="410.21363" y="266.2092" width="122.89998" height="40.3823"/><path class="cls-3" d="M50.79883,291.51367l-2.99951-5.26562L45.999,288.4082v3.10547H44.37939V280.834H45.999v5.36914l4.36524-5.36914h1.97949l-3.46484,4.18457,3.82519,6.49512Z"/><path class="cls-3" d="M58.65869,291.51367v-.76562a2.71876,2.71876,0,0,1-2.0249.85547,2.64026,2.64026,0,0,1-1.875-.69043,2.79242,2.79242,0,0,1-.76465-2.14551V283.9082h1.52979V288.543a1.47636,1.47636,0,0,0,1.52978,1.69531,1.515,1.515,0,0,0,1.5752-1.69531V283.9082h1.52978v7.60547Z"/><path class="cls-3" d="M67.959,290.92773a2.63355,2.63355,0,0,1-1.86035.67579,2.34122,2.34122,0,0,1-2.00976-.9004v.81055h-1.5V280.834h1.53027v3.83985a2.35214,2.35214,0,0,1,1.99463-.85547,2.59079,2.59079,0,0,1,1.84521.67578,6.48209,6.48209,0,0,1,0,6.43359Zm-2.25-5.74414c-1.37988,0-1.58984,1.16993-1.58984,2.51953s.21,2.53516,1.58984,2.53516,1.57471-1.18555,1.57471-2.53516S67.08887,285.18359,65.709,285.18359Z"/><path class="cls-3" d="M72.00879,288.15332a1.87017,1.87017,0,0,0,1.93506,2.12988,2.27343,2.27343,0,0,0,1.84472-.77929l.9751.91406a3.56874,3.56874,0,0,1-2.8501,1.18555c-1.90478,0-3.41943-1.00586-3.41943-3.9004,0-2.459,1.2749-3.88476,3.22461-3.88476,2.04,0,3.2251,1.5,3.2251,3.66016v.6748Zm3.21-2.10059a1.56763,1.56763,0,0,0-1.5-.959,1.58938,1.58938,0,0,0-1.51514.959,2.41315,2.41315,0,0,0-.19482,1.03516h3.41992A2.40734,2.40734,0,0,0,75.21875,286.05273Z"/><path class="cls-3" d="M83.15381,285.69336a1.41239,1.41239,0,0,0-1.14014-.50977,1.565,1.565,0,0,0-1.51465,1.71v4.62012H78.96875V283.9082h1.5v.8252a2.526,2.526,0,0,1,2.0249-.915,2.35274,2.35274,0,0,1,1.81494.7207Z"/><path class="cls-3" d="M90.18848,291.51367v-4.63476a1.47637,1.47637,0,0,0-1.52979-1.69532,1.51471,1.51471,0,0,0-1.57471,1.69532v4.63476H85.55371V283.9082h1.5v.76563a2.71878,2.71878,0,0,1,2.0249-.85547,2.63972,2.63972,0,0,1,1.875.68945,2.79541,2.79541,0,0,1,.76514,2.14551v4.86035Z"/><path class="cls-3" d="M95.19824,288.15332a1.87017,1.87017,0,0,0,1.93506,2.12988,2.27346,2.27346,0,0,0,1.84473-.77929l.97509.91406a3.56873,3.56873,0,0,1-2.85009,1.18555c-1.90479,0-3.41944-1.00586-3.41944-3.9004,0-2.459,1.27491-3.88476,3.22461-3.88476,2.04,0,3.2251,1.5,3.2251,3.66016v.6748Zm3.21-2.10059a1.56762,1.56762,0,0,0-1.5-.959,1.58937,1.58937,0,0,0-1.51513.959,2.413,2.413,0,0,0-.19483,1.03516h3.41992A2.40705,2.40705,0,0,0,98.4082,286.05273Z"/><path class="cls-3" d="M104.42334,291.51367a1.97965,1.97965,0,0,1-2.085-2.11523v-4.18555h-.87012V284.043h.87012V281.7334h1.52978V284.043h1.47022v1.16992h-1.47022v4.11035a.77251.77251,0,0,0,.83985.88477h.63037v1.30566Z"/><path class="cls-3" d="M108.36816,288.15332a1.87018,1.87018,0,0,0,1.93506,2.12988,2.27346,2.27346,0,0,0,1.84473-.77929l.9751.91406a3.56877,3.56877,0,0,1-2.8501,1.18555c-1.90479,0-3.41943-1.00586-3.41943-3.9004,0-2.459,1.2749-3.88476,3.2246-3.88476,2.04,0,3.2251,1.5,3.2251,3.66016v.6748Zm3.21-2.10059a1.56762,1.56762,0,0,0-1.5-.959,1.58937,1.58937,0,0,0-1.51513.959,2.41315,2.41315,0,0,0-.19483,1.03516h3.41993A2.40719,2.40719,0,0,0,111.57812,286.05273Z"/><path class="cls-3" d="M117.78809,291.60352a4.18487,4.18487,0,0,1-3.19483-1.09571l1.00488-1.0039a2.957,2.957,0,0,0,2.18995.79492c.93017,0,1.665-.33008,1.665-1.05078,0-.50977-.28515-.83985-1.02-.90039l-1.21485-.1045c-1.42529-.12011-2.25-.76464-2.25-2.09961,0-1.48535,1.2749-2.32519,2.86475-2.32519a4.16725,4.16725,0,0,1,2.81982.85547l-.96.97461a2.87555,2.87555,0,0,0-1.87451-.55469c-.915,0-1.38037.4043-1.38037.97461,0,.45019.24023.79492,1.05029.87012l1.19971.10449c1.42529.12109,2.26513.79492,2.26513,2.14551C120.95312,290.77832,119.603,291.60352,117.78809,291.60352Z"/><path class="cls-3" d="M180.5498,291.60352a3.86862,3.86862,0,0,1-2.80468-1.14063c-1.0503-1.0498-1.03516-2.23437-1.03516-4.28906s-.01514-3.24024,1.03516-4.29a3.8678,3.8678,0,0,1,2.80468-1.13965,3.67648,3.67648,0,0,1,3.81006,3.28418H182.71a2.20835,2.20835,0,0,0-3.73486-1.18457c-.5249.57031-.645,1.18457-.645,3.33008,0,2.14453.12012,2.75976.645,3.33008a2.21994,2.21994,0,0,0,3.74951-1.18555h1.63525A3.68713,3.68713,0,0,1,180.5498,291.60352Z"/><path class="cls-3" d="M191.4248,290.70312a3.07947,3.07947,0,0,1-2.27978.9004,3.04307,3.04307,0,0,1-2.26514-.9004,5.42446,5.42446,0,0,1,0-5.98437,3.04306,3.04306,0,0,1,2.26514-.90039,3.07947,3.07947,0,0,1,2.27978.90039,5.42441,5.42441,0,0,1,0,5.98437Zm-1.15478-5.084a1.55075,1.55075,0,0,0-1.125-.43555,1.51553,1.51553,0,0,0-1.11035.43555,4.40137,4.40137,0,0,0,0,4.16895,1.52669,1.52669,0,0,0,1.11035.45019,1.56184,1.56184,0,0,0,1.125-.45019,4.40137,4.40137,0,0,0,0-4.16895Z"/><path class="cls-3" d="M199.0293,291.51367v-4.63476a1.47637,1.47637,0,0,0-1.52979-1.69532,1.51471,1.51471,0,0,0-1.57471,1.69532v4.63476h-1.53027V283.9082h1.5v.76563a2.71878,2.71878,0,0,1,2.0249-.85547,2.63972,2.63972,0,0,1,1.875.68945,2.79541,2.79541,0,0,1,.76514,2.14551v4.86035Z"/><path class="cls-3" d="M205.17969,291.51367a1.97964,1.97964,0,0,1-2.085-2.11523v-4.18555h-.87012V284.043h.87012V281.7334h1.52978V284.043h1.47022v1.16992h-1.47022v4.11035a.77251.77251,0,0,0,.83985.88477h.63037v1.30566Z"/><path class="cls-3" d="M212.09424,291.51367v-.69043a2.49866,2.49866,0,0,1-2.0249.78028,2.68155,2.68155,0,0,1-2.03955-.69043,2.33221,2.33221,0,0,1-.6001-1.63477c0-1.27441.88476-2.19043,2.625-2.19043h2.00976v-.53906c0-.96094-.48-1.42578-1.665-1.42578a1.78229,1.78229,0,0,0-1.665.73535l-1.00489-.94434a3.11753,3.11753,0,0,1,2.73-1.0957c2.085,0,3.13477.88476,3.13477,2.60937v5.08594Zm-.02979-3.36035H210.2793c-.89991,0-1.36475.40527-1.36475,1.09473,0,.69043.43506,1.08007,1.395,1.08007a1.81456,1.81456,0,0,0,1.42481-.43554,1.52635,1.52635,0,0,0,.33007-1.125Z"/><path class="cls-3" d="M215.90479,282.4082v-1.61914h1.62011v1.61914Zm.04492,9.10547V283.9082H217.48v7.60547Z"/><path class="cls-3" d="M224.544,291.51367v-4.63476a1.47637,1.47637,0,0,0-1.52979-1.69532,1.51471,1.51471,0,0,0-1.57471,1.69532v4.63476h-1.53027V283.9082h1.5v.76563a2.71878,2.71878,0,0,1,2.0249-.85547,2.63972,2.63972,0,0,1,1.875.68945,2.79541,2.79541,0,0,1,.76514,2.14551v4.86035Z"/><path class="cls-3" d="M229.5542,288.15332a1.87017,1.87017,0,0,0,1.93506,2.12988,2.27343,2.27343,0,0,0,1.84472-.77929l.9751.91406a3.56874,3.56874,0,0,1-2.8501,1.18555c-1.90478,0-3.41943-1.00586-3.41943-3.9004,0-2.459,1.2749-3.88476,3.22461-3.88476,2.04,0,3.2251,1.5,3.2251,3.66016v.6748Zm3.21-2.10059a1.56762,1.56762,0,0,0-1.5-.959,1.58938,1.58938,0,0,0-1.51514.959,2.41315,2.41315,0,0,0-.19482,1.03516h3.41992A2.40734,2.40734,0,0,0,232.76416,286.05273Z"/><path class="cls-3" d="M240.69922,285.69336a1.41239,1.41239,0,0,0-1.14014-.50977,1.565,1.565,0,0,0-1.51465,1.71v4.62012h-1.53027V283.9082h1.5v.8252a2.526,2.526,0,0,1,2.0249-.915,2.35274,2.35274,0,0,1,1.81494.7207Z"/><path class="cls-3" d="M245.40918,291.60352a4.18485,4.18485,0,0,1-3.19482-1.09571l1.00488-1.0039a2.957,2.957,0,0,0,2.18994.79492c.93018,0,1.665-.33008,1.665-1.05078,0-.50977-.28516-.83985-1.02-.90039l-1.21484-.1045c-1.4253-.12011-2.25-.76464-2.25-2.09961,0-1.48535,1.2749-2.32519,2.86474-2.32519a4.16726,4.16726,0,0,1,2.81983.85547l-.96.97461a2.87555,2.87555,0,0,0-1.87451-.55469c-.915,0-1.38037.4043-1.38037.97461,0,.45019.24024.79492,1.0503.87012l1.1997.10449c1.4253.12109,2.26514.79492,2.26514,2.14551C248.57422,290.77832,247.22412,291.60352,245.40918,291.60352Z"/><path class="cls-3" d="M319.00439,291.60352a4.83422,4.83422,0,0,1-3.77978-1.41016l1.07959-1.06445a3.52712,3.52712,0,0,0,2.73,1.01953c1.395,0,2.20508-.59961,2.20508-1.63477a1.4387,1.4387,0,0,0-.41992-1.11035,1.85456,1.85456,0,0,0-1.16993-.4502l-1.26025-.17968a3.65355,3.65355,0,0,1-2.0249-.85547,2.65474,2.65474,0,0,1-.77979-2.03906c0-1.86036,1.3501-3.13477,3.56983-3.13477a4.44575,4.44575,0,0,1,3.31494,1.21484l-1.03516,1.01954a3.136,3.136,0,0,0-2.3247-.8252c-1.26026,0-1.9502.71973-1.9502,1.665a1.26916,1.26916,0,0,0,.40527.99023,2.37456,2.37456,0,0,0,1.19971.49414l1.21484.18067a3.52794,3.52794,0,0,1,1.99512.79492,2.79466,2.79466,0,0,1,.87012,2.19043C322.84424,290.43359,321.23926,291.60352,319.00439,291.60352Z"/><path class="cls-3" d="M325.96436,288.15332a1.87017,1.87017,0,0,0,1.935,2.12988,2.27346,2.27346,0,0,0,1.84473-.77929l.9751.91406a3.56877,3.56877,0,0,1-2.8501,1.18555c-1.90478,0-3.41943-1.00586-3.41943-3.9004,0-2.459,1.2749-3.88476,3.22461-3.88476,2.04,0,3.22509,1.5,3.22509,3.66016v.6748Zm3.21-2.10059a1.56764,1.56764,0,0,0-1.5-.959,1.58938,1.58938,0,0,0-1.51514.959,2.413,2.413,0,0,0-.19482,1.03516h3.41992A2.40734,2.40734,0,0,0,329.17432,286.05273Z"/><path class="cls-3" d="M335.92383,291.60352c-1.71,0-3.38965-1.05079-3.38965-3.9004s1.67969-3.88476,3.38965-3.88476a3.124,3.124,0,0,1,2.50488,1.06445l-1.0498,1.02051a1.77175,1.77175,0,0,0-1.45508-.71973,1.71626,1.71626,0,0,0-1.41016.67481,2.81612,2.81612,0,0,0-.44971,1.84472,2.867,2.867,0,0,0,.44971,1.86036,1.71625,1.71625,0,0,0,1.41016.6748,1.77015,1.77015,0,0,0,1.45508-.7207l1.0498,1.00586A3.13429,3.13429,0,0,1,335.92383,291.60352Z"/><path class="cls-3" d="M344.78857,291.51367v-.76562a2.71876,2.71876,0,0,1-2.0249.85547,2.6403,2.6403,0,0,1-1.875-.69043,2.79242,2.79242,0,0,1-.76465-2.14551V283.9082h1.52979V288.543a1.47636,1.47636,0,0,0,1.52978,1.69531,1.515,1.515,0,0,0,1.5752-1.69531V283.9082h1.52978v7.60547Z"/><path class="cls-3" d="M352.90381,285.69336a1.41239,1.41239,0,0,0-1.14014-.50977,1.565,1.565,0,0,0-1.51465,1.71v4.62012h-1.53027V283.9082h1.5v.8252a2.526,2.526,0,0,1,2.0249-.915,2.35274,2.35274,0,0,1,1.81494.7207Z"/><path class="cls-3" d="M355.25879,282.4082v-1.61914h1.62012v1.61914Zm.04492,9.10547V283.9082H356.834v7.60547Z"/><path class="cls-3" d="M361.52881,291.51367a1.97965,1.97965,0,0,1-2.085-2.11523v-4.18555h-.87012V284.043h.87012V281.7334h1.52978V284.043h1.47022v1.16992h-1.47022v4.11035a.77251.77251,0,0,0,.83985.88477h.63037v1.30566Z"/><path class="cls-3" d="M366.77832,293.02832a2.45323,2.45323,0,0,1-.55469.94434,2.11091,2.11091,0,0,1-1.56006.55468h-.61474v-1.3789h.38965c.645,0,.87011-.19532,1.09521-.81055l.41992-1.18457-2.65478-7.24512h1.61963l1.81494,5.35547,1.77-5.35547h1.63525Z"/><path class="cls-3" d="M443.80518,291.60352a3.86863,3.86863,0,0,1-2.80469-1.14063c-1.05029-1.0498-1.03516-2.23437-1.03516-4.28906s-.01513-3.24024,1.03516-4.29a3.86781,3.86781,0,0,1,2.80469-1.13965,3.67648,3.67648,0,0,1,3.81,3.28418h-1.6499a2.20835,2.20835,0,0,0-3.73486-1.18457c-.5249.57031-.645,1.18457-.645,3.33008,0,2.14453.12012,2.75976.645,3.33008a2.21994,2.21994,0,0,0,3.74951-1.18555h1.63525A3.68712,3.68712,0,0,1,443.80518,291.60352Z"/><path class="cls-3" d="M451.63525,291.51367a1.93852,1.93852,0,0,1-2.085-2.10058V280.834h1.52979v8.48926c0,.585.21.88477.82519.88477h.67481v1.30566Z"/><path class="cls-3" d="M459.04492,290.70312a3.0795,3.0795,0,0,1-2.27978.9004,3.04307,3.04307,0,0,1-2.26514-.9004,5.42446,5.42446,0,0,1,0-5.98437,3.04306,3.04306,0,0,1,2.26514-.90039,3.0795,3.0795,0,0,1,2.27978.90039,5.42446,5.42446,0,0,1,0,5.98437Zm-1.15478-5.084a1.55077,1.55077,0,0,0-1.125-.43555,1.51553,1.51553,0,0,0-1.11035.43555,4.40129,4.40129,0,0,0,0,4.16895,1.52669,1.52669,0,0,0,1.11035.45019,1.56186,1.56186,0,0,0,1.125-.45019,4.40137,4.40137,0,0,0,0-4.16895Z"/><path class="cls-3" d="M466.605,291.51367v-.76562a2.71878,2.71878,0,0,1-2.0249.85547,2.64026,2.64026,0,0,1-1.875-.69043,2.79242,2.79242,0,0,1-.76465-2.14551V283.9082h1.52978V288.543A1.47636,1.47636,0,0,0,465,290.23828a1.515,1.515,0,0,0,1.5752-1.69531V283.9082H468.105v7.60547Z"/><path class="cls-3" d="M474.89941,291.51367v-.81055a2.34066,2.34066,0,0,1-2.00976.9004,2.63144,2.63144,0,0,1-1.85986-.67579,6.47886,6.47886,0,0,1,0-6.43359,2.58955,2.58955,0,0,1,1.84472-.67578,2.35362,2.35362,0,0,1,1.99512.85547V280.834h1.52978v10.67969Zm-1.605-6.33008c-1.37988,0-1.58984,1.16993-1.58984,2.51953s.21,2.53516,1.58984,2.53516c1.38037,0,1.5752-1.18555,1.5752-2.53516S474.6748,285.18359,473.29443,285.18359Z"/><path class="cls-3" d="M482.60986,291.51367V280.834h1.61963v10.67969Z"/><path class="cls-3" d="M491.92432,290.70312a3.07951,3.07951,0,0,1-2.27979.9004,3.04309,3.04309,0,0,1-2.26514-.9004,5.42446,5.42446,0,0,1,0-5.98437,3.04308,3.04308,0,0,1,2.26514-.90039,3.07951,3.07951,0,0,1,2.27979.90039,5.42446,5.42446,0,0,1,0,5.98437Zm-1.15479-5.084a1.55074,1.55074,0,0,0-1.125-.43555,1.51556,1.51556,0,0,0-1.11035.43555,4.40137,4.40137,0,0,0,0,4.16895,1.52672,1.52672,0,0,0,1.11035.45019,1.56183,1.56183,0,0,0,1.125-.45019,4.40137,4.40137,0,0,0,0-4.16895Z"/><path class="cls-3" d="M498.68945,282.28906v9.22461h-1.62011v-9.22461h-2.93946V280.834h7.49951v1.45508Z"/><rect class="cls-1" x="10.1517" y="329.59767" width="534.6966" height="90.47159"/><rect class="cls-1" x="280.77122" y="367.78" width="252.34239" height="40.3823"/><rect class="cls-2" x="280.77122" y="367.78" width="252.34239" height="40.3823"/><path class="cls-3" d="M266.39258,354.86621V344.18652h1.61963v9.22461h5.145v1.45508Z"/><path class="cls-3" d="M279.937,353.26074v1.60547h-1.48486v-1.60547h-4.31983v-1.4248l3.76514-7.64942h1.6499l-3.75,7.64942h2.65479V349.3457H279.937v2.49024h1.14014v1.4248Z"/><path class="cls-3" d="M286.61182,345.6416v9.22461H284.9917V345.6416h-2.93945v-1.45508h7.49951v1.45508Z"/><rect class="cls-1" x="21.88639" y="367.78" width="252.67782" height="40.3823"/><rect class="cls-2" x="21.88639" y="367.78" width="252.67782" height="40.3823"/><path class="cls-3" d="M112.75,393.084v-.81054a2.33816,2.33816,0,0,1-2.00977.90039,2.631,2.631,0,0,1-1.85986-.67481,6.48077,6.48077,0,0,1,0-6.43457,2.59383,2.59383,0,0,1,1.84473-.67578,2.35359,2.35359,0,0,1,1.99511.85547V382.4043H114.25V393.084Zm-1.605-6.33007c-1.37988,0-1.58984,1.16992-1.58984,2.51953,0,1.35058.21,2.53515,1.58984,2.53515,1.38037,0,1.57519-1.18457,1.57519-2.53515C112.72021,387.92383,112.52539,386.75391,111.145,386.75391Z"/><path class="cls-3" d="M123.25,391.959a4.09359,4.09359,0,0,1-5.74463.0752c-1.05029-1.0498-1.03516-2.23535-1.03516-4.29s-.01513-3.24023,1.03516-4.28906a3.816,3.816,0,0,1,2.80469-1.14063,3.75355,3.75355,0,0,1,3.88476,3.31446h-1.63476a2.18054,2.18054,0,0,0-2.25-1.85938,2.144,2.144,0,0,0-1.57471.66016c-.5249.57031-.645,1.16992-.645,3.31445s.12012,2.75977.645,3.33008a2.1359,2.1359,0,0,0,1.57471.64453,2.26326,2.26326,0,0,0,1.74023-.75,2.41293,2.41293,0,0,0,.53955-1.67969v-.59961h-2.27978v-1.38086H124.21v1.63575A3.99839,3.99839,0,0,1,123.25,391.959Z"/><path class="cls-3" d="M130.645,388.88477h-2.43018V393.084h-1.61963V382.4043H130.645a3.245,3.245,0,1,1,0,6.48047Zm-.08984-5.02539h-2.34034v3.55468h2.34034a1.78068,1.78068,0,1,0,0-3.55468Z"/><path class="cls-3" d="M139.68994,393.17383a3.62025,3.62025,0,0,1-3.82471-3.68945V382.4043h1.62012v7.00488a2.21445,2.21445,0,1,0,4.42481,0V382.4043h1.61963v7.08008A3.63278,3.63278,0,0,1,139.68994,393.17383Z"/><path class="cls-3" d="M156.26465,392.0791a3.81312,3.81312,0,0,1-2.75977,1.00488h-3.75V382.4043h3.75a3.81317,3.81317,0,0,1,2.75977,1.00488c1.15478,1.15527,1.08008,2.71582,1.08008,4.26074S157.41943,390.92383,156.26465,392.0791Zm-1.10986-7.5a2.30988,2.30988,0,0,0-1.81495-.71972h-1.96533v7.76953h1.96533a2.30988,2.30988,0,0,0,1.81495-.71973c.55468-.61523.56982-1.77051.56982-3.23926C155.72461,386.19922,155.70947,385.19434,155.15479,384.5791Z"/><path class="cls-3" d="M163.74951,387.26367a1.41526,1.41526,0,0,0-1.14013-.50976,1.5653,1.5653,0,0,0-1.51465,1.71093V393.084h-1.53028v-7.60449h1.5v.8252a2.52372,2.52372,0,0,1,2.02491-.916,2.35274,2.35274,0,0,1,1.81494.72071Z"/><path class="cls-3" d="M166.10449,383.97949v-1.62011h1.62012v1.62011Zm.04492,9.10449v-7.60449h1.53028V393.084Z"/><path class="cls-3" d="M173.04932,393.084H171.8042l-2.78955-7.60449h1.61963l1.80029,5.35449,1.78467-5.35449h1.62012Z"/><path class="cls-3" d="M178.14893,389.72461a1.86984,1.86984,0,0,0,1.935,2.12891,2.27051,2.27051,0,0,0,1.84473-.7793l.9751.915a3.56813,3.56813,0,0,1-2.8501,1.18457c-1.90478,0-3.41943-1.00488-3.41943-3.90039,0-2.459,1.2749-3.88477,3.22461-3.88477,2.04,0,3.22509,1.5,3.22509,3.66016v.67578Zm3.21-2.10059a1.56842,1.56842,0,0,0-1.5-.96,1.59016,1.59016,0,0,0-1.51514.96,2.41,2.41,0,0,0-.19482,1.03516h3.41992A2.40421,2.40421,0,0,0,181.35889,387.624Z"/><path class="cls-3" d="M189.294,387.26367a1.4153,1.4153,0,0,0-1.14014-.50976,1.5653,1.5653,0,0,0-1.51465,1.71093V393.084h-1.53027v-7.60449h1.5v.8252a2.52369,2.52369,0,0,1,2.0249-.916,2.35273,2.35273,0,0,1,1.81494.72071Z"/><path class="cls-3" d="M374.56494,393.084V382.4043h1.61963V393.084Z"/><path class="cls-3" d="M379.04932,394.19336h-1.46973l4.2749-12.89844h1.46973Z"/><path class="cls-3" d="M390.94434,392.03418a4.03965,4.03965,0,0,1-5.62452,0c-1.05029-1.0498-1.03515-2.23535-1.03515-4.29s-.01514-3.24023,1.03515-4.28906a4.03716,4.03716,0,0,1,5.62452,0c1.05029,1.04883,1.02,2.23437,1.02,4.28906S391.99463,390.98438,390.94434,392.03418Zm-1.23-7.60449a2.24447,2.24447,0,0,0-3.17969,0c-.5249.57031-.62988,1.16992-.62988,3.31445s.105,2.74512.62988,3.31445a2.24447,2.24447,0,0,0,3.17969,0c.5249-.56933.63037-1.16992.63037-3.31445S390.23926,385,389.71436,384.42969Z"/><path class="cls-3" d="M404.47412,392.0791a3.81312,3.81312,0,0,1-2.75976,1.00488h-3.75V382.4043h3.75a3.81316,3.81316,0,0,1,2.75976,1.00488c1.15479,1.15527,1.08008,2.71582,1.08008,4.26074S405.62891,390.92383,404.47412,392.0791Zm-1.10986-7.5a2.30987,2.30987,0,0,0-1.81494-.71972H399.584v7.76953h1.96534a2.30988,2.30988,0,0,0,1.81494-.71973c.55469-.61523.56982-1.77051.56982-3.23926C403.93408,386.19922,403.919,385.19434,403.36426,384.5791Z"/><path class="cls-3" d="M411.959,387.26367a1.41526,1.41526,0,0,0-1.14013-.50976,1.5653,1.5653,0,0,0-1.51465,1.71093V393.084h-1.53027v-7.60449h1.5v.8252a2.52369,2.52369,0,0,1,2.0249-.916,2.35273,2.35273,0,0,1,1.81494.72071Z"/><path class="cls-3" d="M414.314,383.97949v-1.62011h1.62012v1.62011Zm.04493,9.10449v-7.60449h1.53027V393.084Z"/><path class="cls-3" d="M421.25879,393.084h-1.24512l-2.78955-7.60449h1.61963L420.644,390.834l1.78467-5.35449h1.62012Z"/><path class="cls-3" d="M426.35889,389.72461a1.86984,1.86984,0,0,0,1.93506,2.12891,2.27049,2.27049,0,0,0,1.84472-.7793l.9751.915a3.56813,3.56813,0,0,1-2.8501,1.18457c-1.90478,0-3.41943-1.00488-3.41943-3.90039,0-2.459,1.2749-3.88477,3.22461-3.88477,2.04,0,3.2251,1.5,3.2251,3.66016v.67578Zm3.21-2.10059a1.56842,1.56842,0,0,0-1.5-.96,1.59017,1.59017,0,0,0-1.51514.96,2.41,2.41,0,0,0-.19482,1.03516h3.41992A2.40421,2.40421,0,0,0,429.56885,387.624Z"/><path class="cls-3" d="M437.50391,387.26367a1.4153,1.4153,0,0,0-1.14014-.50976,1.5653,1.5653,0,0,0-1.51465,1.71093V393.084h-1.53027v-7.60449h1.5v.8252a2.52369,2.52369,0,0,1,2.0249-.916,2.35273,2.35273,0,0,1,1.81494.72071Z"/><path class="cls-4" d="M207.28613,36.48a5.41732,5.41732,0,0,1-3.92627-1.5957c-1.46972-1.46973-1.44873-3.12842-1.44873-6.00489s-.021-4.53515,1.44873-6.00488a5.41732,5.41732,0,0,1,3.92627-1.5957,5.14674,5.14674,0,0,1,5.333,4.59814h-2.30957a3.09058,3.09058,0,0,0-5.228-1.65869c-.73486.79785-.90283,1.65869-.90283,4.66113s.168,3.86329.90283,4.66114a2.98715,2.98715,0,0,0,2.20459.90283,3.01918,3.01918,0,0,0,3.04444-2.56152h2.28857A5.16035,5.16035,0,0,1,207.28613,36.48Z"/><path class="cls-4" d="M215.645,36.354V21.40479h2.26758V34.31738h7.20166V36.354Z"/><path class="cls-4" d="M236.28613,36.354l-1.02881-3.00244h-5.8999L228.32861,36.354h-2.41455l5.48-14.94921h1.82666l5.48,14.94921Zm-3.92627-11.56884-2.33056,6.63476h4.59814Z"/><path class="cls-4" d="M249.0752,36.354l-3.14942-6.29882h-2.83447V36.354h-2.26758V21.40479h5.79492c2.83447,0,4.64014,1.82666,4.64014,4.36718a3.92582,3.92582,0,0,1-2.98145,3.96826L251.7207,36.354Zm-2.62452-12.91259h-3.35937v4.68213h3.35937a2.3489,2.3489,0,1,0,0-4.68213Z"/><path class="cls-4" d="M263.166,36.354l-1.02881-3.00244H256.2373L255.2085,36.354H252.794l5.48-14.94921h1.82666l5.48,14.94921Zm-3.92627-11.56884-2.33057,6.63476h4.59814Z"/><path class="cls-4" d="M281.33057,36.354l-1.02881-3.00244h-5.8999L273.37305,36.354H270.9585l5.48-14.94921h1.82666l5.48,14.94921ZM277.4043,24.78516l-2.33057,6.63476h4.59815Z"/><path class="cls-4" d="M294.60254,34.7793a5.72972,5.72972,0,0,1-8.0415.105c-1.46973-1.46973-1.44874-3.12842-1.44874-6.00489s-.021-4.53515,1.44874-6.00488a5.34839,5.34839,0,0,1,3.92626-1.5957,5.25535,5.25535,0,0,1,5.438,4.64014h-2.28857a3.053,3.053,0,0,0-3.14942-2.60352,3.003,3.003,0,0,0-2.20459.92383c-.73486.79785-.90283,1.63769-.90283,4.64013s.168,3.86329.90283,4.66114a2.98715,2.98715,0,0,0,2.20459.90283,3.1688,3.1688,0,0,0,2.43555-1.04981,3.37713,3.37713,0,0,0,.75586-2.35156v-.83984H290.4873V28.27051h5.459v2.28857A5.59818,5.59818,0,0,1,294.60254,34.7793Z"/><path class="cls-4" d="M306.42578,36.354l-3.25439-5.73193L299.938,36.354h-2.60352l4.61914-7.66357-4.32519-7.28564h2.60351l2.93946,5.354,2.96045-5.354h2.60351l-4.32519,7.28564,4.64013,7.66357Z"/><path class="cls-4" d="M320.22314,36.48a6.7688,6.7688,0,0,1-5.291-1.97363l1.51172-1.49073a4.933,4.933,0,0,0,3.82129,1.42774c1.95263,0,3.08642-.83984,3.08642-2.28857a2.011,2.011,0,0,0-.58789-1.55372,2.59607,2.59607,0,0,0-1.63769-.62988l-1.76368-.252a5.11748,5.11748,0,0,1-2.83447-1.19678A3.7186,3.7186,0,0,1,315.436,25.667c0-2.60351,1.88964-4.38818,4.99707-4.38818a6.22494,6.22494,0,0,1,4.64013,1.70068l-1.44873,1.42774a4.3901,4.3901,0,0,0-3.25439-1.15479c-1.76367,0-2.7295,1.00781-2.7295,2.33057a1.77765,1.77765,0,0,0,.5669,1.38574,3.339,3.339,0,0,0,1.67969.69287l1.70068.252a4.94629,4.94629,0,0,1,2.79248,1.1128,3.91072,3.91072,0,0,1,1.21777,3.06543C325.59814,34.84229,323.35156,36.48,320.22314,36.48Z"/><path class="cls-4" d="M337.75732,34.94727A5.33621,5.33621,0,0,1,333.894,36.354h-5.249V21.40479h5.249a5.33621,5.33621,0,0,1,3.86328,1.40673c1.6167,1.6167,1.51172,3.8003,1.51172,5.96289S339.374,33.33057,337.75732,34.94727Zm-1.55371-10.49805a3.23311,3.23311,0,0,0-2.54052-1.00781H330.9126v10.876h2.75049a3.23311,3.23311,0,0,0,2.54052-1.00781c.77686-.86084.79785-2.47754.79785-4.53516S336.98047,25.31006,336.20361,24.44922Z"/><path class="cls-4" d="M351.61719,36.354,347.418,28.98438l-2.51953,3.02343V36.354h-2.26758V21.40479h2.26758v7.5166l6.10986-7.5166h2.77149l-4.8501,5.85791,5.354,9.0913Z"/></svg>