<?xml version="1.0" encoding="UTF-8"?>
<svg width="315px" height="96px" viewBox="0 0 315 96" version="1.1" xmlns="http://www.w3.org/2000/svg" xmlns:xlink="http://www.w3.org/1999/xlink">
    <!-- Generator: Sketch 49 (51002) - http://www.bohemiancoding.com/sketch -->
    <title>xilinx_vitis_color</title>
    <desc>Created with Sketch.</desc>
    <defs></defs>
    <g id="Page-1" stroke="none" stroke-width="1" fill="none" fill-rule="evenodd">
        <g id="software-development-page" transform="translate(-710.000000, -748.000000)" fill-rule="nonzero">
            <g id="xilinx_vitis_color" transform="translate(710.000000, 748.000000)">
                <g id="Group" transform="translate(301.000000, 87.000000)" fill="#838383">
                    <polygon id="Shape" points="3.23076923 1.2375 3.23076923 8.55 2.26153846 8.55 2.26153846 1.2375 0 1.2375 0 0.225 5.49230769 0.225 5.49230769 1.2375"></polygon>
                    <path d="M12.4923077,8.55 C12.4923077,8.325 12.6,1.575 12.6,1.575 L10.2307692,8.55 L9.47692308,8.55 L7.10769231,1.6875 C7.10769231,1.6875 7.21538462,8.325 7.21538462,8.55 L6.24615385,8.55 L6.24615385,0.225 L7.53846154,0.225 L9.8,7.0875 L12.1692308,0.225 L13.4615385,0.225 L13.4615385,8.55 L12.4923077,8.55 Z" id="Shape"></path>
                </g>
                <path d="M150.587973,28 L144.14922,17.0278884 L137.710468,28 L134,28 L142.403118,14.2310757 L134.545657,1.10756972 L138.365256,1.10756972 L144.258352,11.3266932 L150.151448,1.10756972 L153.971047,1.10756972 L146.113586,14.2310757 L154.516704,28 L150.587973,28 Z M156.481069,28 L159.755011,28 L159.755011,1.10756972 L156.481069,1.10756972 L156.481069,28 Z M178.743875,28 L178.743875,25.0956175 L167.503341,25.0956175 L167.503341,1 L164.229399,1 L164.229399,27.8924303 L178.743875,27.8924303 L178.743875,28 Z M181.47216,28 L184.746102,28 L184.746102,1.10756972 L181.47216,1.10756972 L181.47216,28 Z M209.628062,28 L209.628062,1.10756972 L206.35412,1.10756972 L206.35412,21.8685259 L192.385301,1.10756972 L189.329621,1.10756972 L189.329621,28 L192.603563,28 L192.603563,7.1314741 L206.572383,27.8924303 L209.628062,27.8924303 L209.628062,28 Z M232,28 L223.596882,14.2310757 L231.454343,1.10756972 L227.634744,1.10756972 L221.741648,11.3266932 L215.848552,1.10756972 L212.028953,1.10756972 L219.886414,14.2310757 L211.483296,28 L215.193764,28 L221.632517,17.0278884 L228.071269,28 L232,28 Z" id="Shape" fill="#000000"></path>
                <g id="Group">
                    <path d="M0.546511628,24.3272727 L21.3139535,0.545454545 L51.7,0.545454545 L31.0418605,24.3272727 L0.546511628,24.3272727 Z M31.0418605,71.7818182 L51.7,48 L21.3139535,48 L0.546511628,71.7818182 L31.0418605,71.7818182 Z M51.7,0.545454545 L72.3581395,24.3272727 L93.0162791,0.545454545 L51.7,0.545454545 Z" id="Shape" fill="#EC1C24"></path>
                    <path d="M31.0418605,71.7818182 L51.7,95.5636364 L21.3139535,95.5636364 L0.546511628,71.7818182 L31.0418605,71.7818182 Z M0.546511628,24.3272727 L21.3139535,48.1090909 L51.7,48.1090909 L31.0418605,24.3272727 L0.546511628,24.3272727 Z M51.7,95.5636364 L72.3581395,71.7818182 L93.0162791,95.5636364 L51.7,95.5636364 Z" id="Shape" fill="#A21820"></path>
                </g>
                <polygon id="Shape" fill="#838383" points="154.348449 96 146.99284 96 128 40 135.904535 40 150.725537 86.7764706 166.095465 40 174 40"></polygon>
                <polygon id="Shape" fill="#838383" points="180 96 180 40 188 40 188 96"></polygon>
                <polygon id="Shape" fill="#838383" points="218.227273 46.4784314 218.227273 96 210.772727 96 210.772727 46.4784314 194 46.4784314 194 40 235 40 235 46.4784314"></polygon>
                <polygon id="Shape" fill="#838383" points="241 96 241 40 249 40 249 96"></polygon>
                <path d="M262.59,76.6365422 C262.7,78.7269155 263.14,90.4990177 277.99,90.4990177 C282.5,90.4990177 291.3,88.7387033 291.3,79.827112 C291.3,73.8860511 286.9,72.1257367 281.18,71.0255403 L276.34,70.0353635 C264.35,67.6149312 257.53,63.7642436 257.53,54.8526523 C257.53,50.5618861 259.4,47.0412574 262.59,44.4007859 C267.76,40.1100196 273.81,40 276.45,40 C281.73,40 286.9,40.6601179 291.19,43.9607073 C295.92,47.481336 297.13,51.3320236 298.01,56.3929273 L290.86,56.8330059 C290.86,53.7524558 289.21,45.5009823 277.11,45.5009823 C272.05,45.5009823 264.9,47.3713163 264.9,53.8624754 C264.9,59.0333988 269.52,60.7937132 275.57,62.2239686 L285.36,64.5343811 C287.89,65.194499 299,67.6149312 299,79.2770138 C299,81.367387 298.67,86.2082515 294.49,90.2789784 C291.52,93.1394892 286.68,96 277.66,96 C275.9,96 268.64,95.8899804 263.03,92.259332 C255.88,87.6385069 255.22,79.827112 255,77.5166994 L262.59,76.6365422 Z" id="Shape" fill="#838383"></path>
            </g>
        </g>
    </g>
</svg>